<?xml version="1.0" standalone="no"?>
<!DOCTYPE svg PUBLIC "-//W3C//DTD SVG 20010904//EN"
 "http://www.w3.org/TR/2001/REC-SVG-20010904/DTD/svg10.dtd">
<svg version="1.0" xmlns="http://www.w3.org/2000/svg"
 width="1120.000000pt" height="1120.000000pt" viewBox="0 0 1120.000000 1120.000000"
 preserveAspectRatio="xMidYMid meet">

<g transform="translate(0.000000,1120.000000) scale(0.100000,-0.100000)"
fill="#000000" stroke="none">
<path d="M0 10753 c0 -247 4 -454 8 -460 6 -9 17 -10 39 -4 23 7 37 5 52 -5
11 -8 29 -14 38 -12 10 2 17 -2 16 -7 -1 -6 6 -11 15 -12 39 -3 61 -7 60 -13
-1 -3 2 -13 7 -23 6 -15 10 -16 16 -5 7 10 9 9 9 -4 0 -10 3 -17 8 -16 18 3
113 -43 106 -53 -5 -9 25 -21 36 -14 4 3 6 -5 2 -17 -3 -14 -2 -19 6 -14 7 4
12 2 12 -4 0 -7 7 -9 16 -6 8 3 12 2 9 -4 -3 -6 4 -14 17 -19 34 -14 80 -60
72 -73 -4 -6 -3 -8 4 -5 13 9 44 -2 37 -13 -2 -4 7 -12 20 -18 14 -7 25 -20
25 -29 0 -14 2 -15 9 -4 7 11 10 9 16 -9 4 -13 26 -40 49 -61 22 -21 46 -43
51 -49 6 -5 33 -33 60 -62 28 -28 48 -56 47 -62 -2 -6 0 -8 4 -4 4 5 14 -1 21
-12 8 -11 19 -18 24 -15 5 4 9 1 9 -5 0 -6 15 -25 33 -43 18 -19 43 -47 56
-63 17 -20 22 -23 18 -9 -5 14 -1 12 16 -8 12 -16 43 -50 68 -75 26 -26 52
-57 58 -69 6 -13 18 -23 26 -23 8 0 15 -7 15 -15 0 -8 9 -19 19 -25 11 -5 22
-19 26 -30 3 -11 11 -19 17 -17 6 1 16 -7 22 -18 6 -12 23 -34 39 -50 15 -17
27 -32 27 -36 0 -3 13 -21 30 -39 16 -18 30 -37 30 -42 0 -4 -75 -8 -167 -8
-91 0 -164 -2 -161 -5 8 -8 97 -13 241 -14 71 -1 126 -5 125 -10 -2 -5 12 -23
31 -40 19 -17 32 -31 29 -31 -3 0 10 -17 31 -38 20 -21 39 -36 44 -34 4 2 7
-2 7 -8 0 -13 -4 -9 110 -110 101 -89 130 -118 130 -131 0 -5 7 -9 15 -9 8 0
41 -26 73 -58 31 -31 75 -73 97 -91 22 -18 33 -30 25 -26 -8 5 1 -8 20 -28 19
-20 51 -55 70 -78 19 -22 42 -48 51 -57 8 -10 29 -35 45 -57 16 -22 33 -43 39
-47 6 -5 5 -8 -3 -8 -7 0 -10 -4 -7 -10 3 -5 17 -10 31 -10 14 0 23 -4 19 -10
-3 -6 1 -13 9 -16 9 -3 16 -11 16 -16 0 -5 16 -24 35 -40 19 -17 33 -34 31
-37 -2 -3 2 -12 10 -19 8 -7 14 -10 14 -6 0 4 16 -11 35 -32 19 -21 35 -42 35
-46 0 -4 6 -8 13 -8 7 0 17 -10 22 -22 6 -13 13 -22 18 -20 7 2 47 -34 47 -43
0 -5 45 -55 130 -145 62 -65 90 -98 90 -106 0 -3 11 -16 25 -30 14 -14 25 -28
25 -32 0 -4 13 -21 28 -37 40 -43 84 -123 71 -131 -6 -3 -10 -18 -9 -32 1 -15
1 -30 0 -34 -4 -12 -7 -27 -9 -36 -3 -17 -95 -31 -248 -38 l-162 -6 28 -42
c45 -66 104 -192 106 -229 0 -4 6 -11 13 -16 8 -5 13 -10 12 -12 -5 -11 13
-58 20 -54 5 3 11 -8 15 -25 4 -17 10 -28 15 -25 5 3 16 -8 26 -24 15 -25 20
-27 36 -18 10 7 18 20 18 31 0 24 55 77 73 70 8 -3 17 2 21 11 3 9 11 15 18
14 7 -1 20 -1 28 0 13 1 13 2 0 11 -12 8 -10 10 10 11 14 1 29 1 33 0 4 -1 25
7 47 18 22 11 38 16 36 12 -3 -4 5 -7 17 -8 12 0 16 1 9 4 -6 3 -10 9 -7 13 3
5 13 6 21 3 9 -3 20 0 26 8 7 11 11 11 15 2 2 -7 12 -13 21 -12 11 0 12 2 5 6
-7 2 -13 9 -13 14 0 6 8 5 20 -1 11 -6 25 -8 30 -5 6 3 10 0 10 -7 0 -9 3 -9
10 2 5 8 10 12 10 8 0 -4 11 -3 25 2 33 12 165 21 165 11 0 -5 12 -6 28 -4 15
3 44 5 65 5 31 0 37 3 33 17 -5 14 -4 13 7 -1 8 -10 17 -15 21 -11 8 8 40 14
78 15 16 1 28 4 28 9 0 4 13 4 30 -1 19 -6 32 -5 36 2 5 7 2 8 -6 3 -9 -6 -11
-4 -5 4 4 7 16 11 26 8 10 -3 22 -1 25 4 3 5 13 5 24 -1 25 -13 30 -13 30 5 0
8 7 15 16 15 8 0 13 -4 10 -8 -3 -4 10 -7 27 -6 17 1 36 0 41 -3 5 -3 34 -8
65 -10 93 -7 141 -19 141 -37 0 -7 -37 -57 -82 -110 -126 -148 -131 -155 -125
-170 3 -7 20 -24 39 -37 20 -14 28 -17 20 -6 -8 9 -12 20 -10 25 1 5 50 49
108 99 58 50 118 104 134 122 33 34 43 37 60 18 6 -7 59 -56 119 -107 59 -51
107 -96 107 -99 -1 -3 -21 -19 -45 -34 -25 -16 -45 -32 -45 -37 0 -5 17 -26
38 -49 l37 -40 64 70 c34 38 61 75 58 82 -3 7 -54 66 -114 132 -129 142 -161
185 -139 185 8 0 22 7 30 16 9 8 16 10 16 4 0 -7 6 -8 19 -1 10 6 21 7 25 4 3
-3 6 -2 6 3 0 5 12 9 28 8 15 0 30 4 34 10 6 8 8 8 8 -1 0 -7 12 -10 35 -7 20
2 35 0 35 -6 0 -7 6 -7 17 -1 10 5 33 8 51 6 19 -1 32 2 32 9 0 6 4 4 10 -4 5
-8 12 -11 16 -7 4 4 13 2 21 -4 10 -9 13 -7 13 6 0 14 3 15 14 6 8 -7 17 -8
20 -3 3 5 19 8 35 7 17 -1 28 2 25 7 -6 10 4 9 31 -1 11 -5 27 -5 35 -1 8 4
39 4 68 1 28 -4 52 -5 52 -1 0 4 23 5 51 2 28 -2 49 0 46 5 -7 12 87 10 95 -2
5 -6 8 -6 8 2 0 6 13 10 30 9 16 -1 31 2 32 6 2 5 33 10 70 11 36 1 64 5 62 8
-2 4 3 9 11 13 8 3 15 1 15 -4 0 -5 7 -7 15 -4 8 4 13 9 11 13 -5 8 17 7 109
-5 33 -4 72 -8 88 -7 15 0 27 -3 27 -6 0 -3 59 -6 131 -6 72 0 133 -3 136 -8
2 -4 10 -4 16 0 19 12 36 12 43 1 4 -6 10 -5 15 3 7 12 12 12 30 1 12 -8 24
-10 28 -5 7 10 32 10 49 0 8 -5 12 -3 12 7 0 19 4 20 30 4 17 -11 22 -10 29 1
6 9 10 10 12 2 3 -9 12 -9 33 -1 27 10 28 9 15 -7 -13 -17 -12 -17 8 0 14 12
23 15 28 8 3 -6 12 -11 18 -11 7 0 6 4 -3 10 -12 8 -11 10 7 10 12 0 25 -5 28
-10 4 -6 11 -8 16 -4 5 3 6 10 3 16 -4 7 -2 8 5 4 22 -14 71 -16 71 -3 0 7 4
6 10 -3 6 -10 10 -11 10 -2 0 6 5 12 11 12 5 0 8 -4 5 -8 -2 -4 4 -8 15 -8 10
0 19 4 19 8 0 13 28 9 33 -4 3 -10 7 -10 19 0 9 7 23 10 32 6 9 -3 16 -1 16 6
0 6 4 9 9 6 4 -3 24 -7 44 -10 28 -3 35 -1 30 10 -3 8 0 14 6 14 6 0 11 -4 11
-8 0 -4 17 -9 37 -10 21 -2 40 -8 44 -14 4 -7 8 -6 12 3 4 10 6 10 6 2 1 -9 8
-10 26 -3 18 7 24 6 22 -3 -2 -14 105 -19 114 -5 5 8 24 14 52 17 4 1 7 5 7
11 0 5 -8 7 -17 4 -15 -5 -16 -4 -3 5 8 6 15 18 15 27 0 10 6 19 13 22 9 3 11
-3 6 -24 -5 -18 -3 -25 4 -20 6 3 13 0 15 -6 4 -9 6 -10 6 -1 1 6 -3 14 -9 18
-5 3 -7 12 -3 20 3 11 21 15 58 15 30 0 57 5 61 12 4 6 3 8 -3 5 -6 -4 -19 0
-29 8 -10 8 -29 15 -40 15 -26 0 -40 15 -49 52 -4 16 -11 25 -16 22 -21 -13
-6 27 21 56 17 18 28 36 24 39 -8 8 -1484 4 -1492 -4 -4 -3 -9 -43 -12 -88
l-5 -82 -52 -3 c-85 -5 -93 4 -93 101 l0 82 -468 0 c-257 0 -601 -1 -766 -3
l-299 -2 27 -21 c14 -11 26 -26 25 -32 -2 -7 3 -24 11 -39 28 -59 -24 -88
-164 -91 -74 -2 -98 2 -131 18 -39 20 -40 22 -38 68 1 51 14 74 48 87 11 5
-146 9 -352 9 l-371 1 -108 173 c-218 349 -538 831 -924 1392 -422 613 -717
1061 -1386 2102 l-59 93 -272 0 -273 0 0 -447z m5623 -3530 c-13 -2 -35 -2
-50 0 -16 2 -5 4 22 4 28 0 40 -2 28 -4z m-1766 -9 c-3 -3 -12 -4 -19 -1 -8 3
-5 6 6 6 11 1 17 -2 13 -5z m46 -1 c-7 -2 -19 -2 -25 0 -7 3 -2 5 12 5 14 0
19 -2 13 -5z"/>
<path d="M916 11168 c9 -18 40 -68 69 -113 103 -159 161 -254 298 -490 77
-132 171 -288 209 -347 38 -59 80 -133 94 -164 l25 -56 25 17 c53 34 171 37
1579 30 759 -3 1522 -5 1695 -4 452 3 514 2 518 -10 2 -6 8 -11 14 -11 7 0 9
31 5 93 -4 51 -7 286 -8 522 -1 237 -4 460 -6 498 l-5 67 -1440 0 -1439 0 26
-37 c52 -77 27 -151 -70 -208 -25 -14 -45 -30 -45 -35 0 -6 -6 -10 -14 -10 -8
0 -16 -7 -19 -14 -12 -31 -141 -47 -212 -28 -22 6 -42 10 -45 9 -3 -1 -16 8
-30 21 -13 12 -29 22 -36 22 -7 0 -17 6 -21 13 -4 7 -30 21 -56 31 -112 42
-163 128 -122 206 l16 30 -511 0 -511 0 17 -32z"/>
<path d="M5716 10708 c-3 -271 -9 -532 -12 -580 l-6 -88 53 -1 c30 -1 91 -2
136 -3 46 0 83 -4 83 -8 0 -4 13 -3 29 2 16 4 171 9 343 10 172 0 331 3 353 6
47 5 1857 5 2400 0 211 -3 389 -9 415 -15 25 -6 48 -11 52 -11 4 0 23 30 41
68 19 37 62 111 95 164 34 54 62 100 62 102 0 5 113 191 270 446 46 74 106
171 133 215 27 44 54 87 61 95 7 8 23 32 35 53 l23 37 -495 0 -494 0 5 -53 c4
-47 1 -57 -23 -85 -105 -125 -452 -157 -606 -57 -64 42 -81 110 -43 173 l14
22 -1459 0 -1458 0 -7 -492z"/>
<path d="M10394 10868 c-121 -183 -267 -406 -324 -496 -143 -223 -819 -1236
-932 -1397 -50 -71 -192 -281 -316 -465 -124 -184 -271 -402 -327 -485 -56
-82 -122 -183 -148 -223 -47 -72 -47 -73 -17 -56 16 10 30 22 30 26 0 4 6 7
13 5 6 -1 11 4 9 11 -1 8 1 11 5 9 5 -3 17 1 28 9 10 8 16 14 12 14 -11 0 106
110 118 110 5 1 23 17 38 38 38 50 177 192 188 192 5 0 9 5 9 10 0 6 8 10 19
10 14 0 17 6 13 25 -2 15 0 25 7 25 6 0 11 7 11 16 0 8 5 12 10 9 6 -3 10 -3
10 2 0 4 10 20 23 35 12 15 32 40 44 55 40 52 60 73 66 67 3 -3 8 4 12 16 4
11 17 28 31 36 13 9 24 20 24 25 0 5 8 17 18 27 9 10 51 56 92 102 41 46 92
101 113 122 20 22 37 43 37 48 0 5 9 12 20 15 11 3 20 15 20 25 0 11 9 24 21
30 23 13 60 48 57 54 -5 8 97 116 110 116 6 0 12 5 12 10 0 6 24 11 53 12 l52
2 -47 3 c-34 3 -48 8 -48 19 0 7 5 14 10 14 6 0 10 6 10 14 0 8 7 16 15 20 8
3 15 12 15 20 0 8 3 16 8 18 4 2 30 30 57 63 28 33 78 88 112 122 34 35 60 63
57 63 -3 0 19 24 48 54 29 30 78 82 108 117 79 91 137 149 149 149 6 0 11 6
11 13 0 16 64 79 73 72 4 -3 5 -3 3 0 -3 5 33 44 202 219 26 26 46 52 45 57
-2 5 6 9 17 9 11 0 23 7 26 15 4 8 13 15 21 15 8 0 12 4 9 9 -3 5 11 21 32 37
55 42 91 77 87 85 -3 4 9 12 25 19 17 7 30 20 30 29 0 14 2 14 10 1 7 -12 11
-10 18 10 5 14 15 25 23 25 8 0 16 5 18 10 5 13 62 47 68 41 8 -8 31 18 25 28
-3 5 0 6 6 2 6 -3 17 0 25 8 11 11 17 12 26 3 9 -9 11 -8 6 5 -5 13 0 19 19
24 14 3 23 11 19 17 -3 5 -1 7 5 3 6 -3 13 -2 17 4 3 5 19 10 35 10 23 0 31 6
36 24 3 14 12 27 20 30 9 4 12 2 8 -5 -9 -15 38 0 48 15 6 8 8 7 8 -1 0 -7 8
-13 18 -13 14 0 15 2 2 10 -10 6 -11 10 -2 10 9 0 12 70 12 315 l0 315 -293 0
-293 0 -220 -332z"/>
<path d="M7112 9700 c-1115 -4 -1404 -8 -1411 -18 -4 -7 -13 -198 -19 -425
-15 -492 -23 -1149 -14 -1057 5 47 10 61 17 50 5 -8 11 -26 13 -39 2 -13 10
-37 18 -52 8 -16 14 -31 13 -35 0 -3 3 -9 7 -12 4 -4 4 -1 0 6 -4 6 -2 12 3
12 6 0 11 -5 11 -11 0 -5 5 -7 10 -4 6 3 10 2 10 -4 0 -5 16 -8 35 -6 19 2 32
-1 29 -6 -3 -5 -13 -9 -22 -10 -14 0 -13 -2 3 -9 27 -12 43 -12 25 0 -9 6 -10
10 -3 10 6 0 15 -5 18 -10 4 -6 11 -7 17 -4 8 5 9 1 5 -10 -4 -9 -3 -14 2 -11
5 3 12 1 16 -5 3 -5 14 -10 23 -9 11 0 9 4 -8 11 -18 7 -21 12 -11 16 8 2 22
-5 32 -17 10 -13 20 -17 24 -11 8 13 25 13 25 -1 0 -5 -4 -7 -10 -4 -5 3 -10
1 -10 -5 0 -6 6 -10 13 -9 37 5 67 -2 67 -16 0 -11 5 -12 26 -5 16 7 23 7 19
0 -10 -16 22 -11 39 6 9 8 16 11 16 5 0 -8 20 -10 57 -7 38 3 60 1 65 -7 6 -9
8 -9 8 0 0 13 49 8 64 -8 15 -14 29 -11 22 6 -7 20 -4 19 23 -4 12 -11 31 -18
42 -16 10 2 19 0 19 -6 0 -5 9 -9 21 -9 26 0 61 19 54 29 -2 5 11 12 30 15 20
4 33 11 30 16 -8 13 17 60 28 53 6 -3 7 -1 3 5 -3 6 -2 13 4 17 6 4 8 10 5 15
-3 5 -1 18 4 28 6 11 12 37 15 58 2 21 5 39 6 39 3 0 10 40 16 90 3 28 8 61
10 75 2 14 7 48 9 75 3 28 10 52 15 53 6 2 8 8 4 13 -3 5 2 45 11 89 9 44 18
93 21 108 8 47 25 80 44 85 19 5 35 -17 24 -34 -3 -5 -1 -9 4 -9 12 0 41 -117
45 -186 2 -28 6 -55 9 -60 3 -5 9 -63 12 -129 3 -66 9 -133 12 -150 7 -32 10
-62 12 -111 1 -17 13 -47 26 -67 17 -24 21 -37 13 -41 -8 -3 -7 -5 2 -5 8 -1
20 -9 28 -18 14 -17 14 -17 8 2 -5 16 -4 18 6 8 15 -15 93 -18 85 -4 -3 5 8
14 25 20 21 7 29 15 26 25 -4 10 -1 13 9 9 8 -3 14 1 14 10 0 9 5 19 12 23 7
5 8 2 3 -7 -5 -8 -4 -11 1 -6 5 5 10 12 10 15 6 29 18 51 25 46 5 -3 9 6 9 19
0 14 6 40 14 58 8 19 17 63 20 99 4 36 11 94 17 130 5 36 10 72 10 80 1 8 5
49 10 90 4 41 11 107 14 145 11 121 41 203 65 179 26 -26 71 -326 85 -564 4
-58 9 -112 11 -122 8 -26 46 -46 105 -53 30 -4 56 -10 59 -14 3 -3 19 -8 35
-10 68 -7 107 -47 145 -147 10 -27 8 -36 -10 -67 -12 -21 -28 -37 -36 -37 -8
0 -14 -4 -14 -10 0 -5 -20 -19 -45 -31 -49 -23 -72 -46 -37 -37 13 4 20 2 19
-6 -1 -6 5 -9 13 -7 8 2 24 3 35 1 11 -2 39 -3 63 -4 23 -1 42 -5 42 -9 0 -5
5 -5 11 -1 6 3 25 8 42 10 55 5 102 16 113 25 6 5 14 6 17 2 4 -3 7 -1 7 5 0
7 7 12 15 12 14 0 20 13 15 35 -1 6 1 7 5 3 8 -8 35 15 35 31 0 5 9 13 20 16
11 3 20 12 20 18 0 7 18 28 39 47 22 18 38 37 35 41 -2 5 7 16 21 25 15 10 24
23 21 31 -3 8 -2 12 2 9 4 -2 28 25 52 60 25 36 66 94 92 129 25 35 44 66 41
69 -3 2 9 20 26 38 17 18 34 43 37 55 4 14 17 24 36 28 16 4 31 5 33 3 1 -1
-29 -55 -67 -118 -39 -63 -138 -227 -221 -365 -82 -137 -156 -257 -164 -265
-11 -12 -62 -15 -306 -16 -160 -1 -326 -6 -367 -11 -41 -4 -115 -5 -165 -2
-120 8 -1544 10 -1572 3 -17 -5 -24 -16 -29 -50 -6 -43 3 -92 13 -67 5 13 599
17 1954 16 l455 0 18 51 c10 28 50 103 89 166 38 63 84 139 101 168 60 102
298 477 315 497 10 11 26 34 36 50 17 29 17 30 -1 9 -11 -12 -25 -30 -32 -40
-7 -11 -2 1 12 26 14 25 29 44 35 43 6 -2 36 43 67 100 100 179 106 189 111
184 2 -3 -3 -17 -13 -31 -9 -15 -14 -29 -12 -32 3 -2 20 19 38 48 18 29 53 85
79 123 25 39 54 86 64 105 18 33 74 109 88 120 3 3 14 21 24 40 21 40 182 289
222 342 15 21 39 41 53 44 14 4 31 12 39 18 11 8 -3 12 -60 17 -41 3 -78 4
-84 2 -5 -2 -27 -30 -49 -63 -21 -33 -42 -63 -47 -66 -16 -10 23 72 47 97 l25
26 -95 7 c-52 4 -216 6 -363 4 -147 -2 -899 -5 -1671 -8z m1105 -272 c84 -23
113 -46 114 -91 0 -18 2 -48 5 -69 4 -29 0 -40 -19 -55 -14 -10 -27 -28 -31
-38 -3 -11 -32 -33 -63 -50 -54 -28 -66 -30 -158 -29 -91 0 -106 3 -154 29
-69 38 -94 74 -98 144 -5 73 9 103 60 131 91 52 217 62 344 28z m690 -310
c-63 -106 -97 -158 -102 -158 -8 0 53 118 65 125 6 4 22 29 35 56 14 27 30 49
35 49 5 0 -10 -33 -33 -72z m53 2 c-6 -11 -13 -20 -16 -20 -2 0 0 9 6 20 6 11
13 20 16 20 2 0 0 -9 -6 -20z m-110 -180 c-6 -11 -13 -20 -16 -20 -2 0 0 9 6
20 6 11 13 20 16 20 2 0 0 -9 -6 -20z m-108 -97 c-33 -54 -89 -144 -123 -200
-35 -57 -66 -103 -70 -103 -15 0 -5 45 13 66 10 12 18 25 16 30 -4 15 22 55
33 49 5 -4 9 -3 8 2 -4 16 13 43 27 43 8 0 14 7 14 15 0 8 5 15 11 15 6 0 9 7
5 15 -3 8 -1 15 4 15 5 0 33 36 62 80 29 43 54 77 56 75 2 -2 -23 -48 -56
-102z m-2260 -857 c7 4 8 2 4 -4 -12 -19 -36 -15 -29 5 4 11 8 13 11 5 2 -7 9
-9 14 -6z"/>
<path d="M1769 9673 c5 -10 19 -28 30 -40 12 -12 21 -26 21 -30 0 -4 23 -32
51 -61 28 -29 48 -59 46 -66 -3 -7 4 -18 14 -25 11 -6 17 -16 14 -21 -4 -6 1
-13 10 -16 9 -4 14 -13 11 -20 -3 -9 0 -11 11 -7 13 5 15 2 10 -11 -4 -9 -3
-15 2 -12 5 3 17 -6 26 -20 11 -18 13 -24 4 -19 -8 5 1 -8 19 -26 17 -19 32
-38 32 -42 0 -4 25 -43 55 -87 30 -44 55 -81 54 -82 -4 -9 45 -77 52 -72 5 3
9 -1 9 -10 0 -8 4 -16 9 -18 9 -3 97 -133 168 -248 22 -36 77 -123 123 -195
46 -71 113 -179 150 -240 37 -60 117 -189 177 -285 128 -204 169 -279 183
-336 l10 -41 52 -1 c118 -3 607 -5 803 -3 116 0 300 1 410 1 110 0 360 2 555
4 195 3 417 5 493 5 l138 1 -3 48 -3 47 -100 7 c-146 10 -1345 10 -1446 0 -48
-5 -113 -5 -145 -1 -69 10 -157 20 -199 23 -16 2 -34 4 -40 6 -11 4 -366 -9
-432 -15 -24 -3 -53 -1 -65 4 -15 5 -51 55 -97 132 -41 68 -82 135 -90 149
l-16 25 32 -25 c18 -14 35 -33 38 -43 4 -9 10 -15 15 -12 5 3 11 -3 15 -14 3
-11 13 -22 23 -26 14 -5 14 -7 2 -15 -11 -7 -11 -10 -2 -10 7 0 32 -20 56 -44
62 -64 89 -69 378 -70 230 -1 248 0 265 18 10 10 12 16 6 12 -8 -5 -13 -1 -13
10 0 12 -6 15 -25 12 -13 -3 -23 -2 -22 1 1 3 -2 8 -8 9 -5 2 -19 9 -30 15
-11 6 -35 12 -54 14 -36 4 -121 44 -138 65 -10 13 -9 44 3 104 8 40 38 55 126
62 37 2 67 7 66 11 -2 22 6 30 37 35 19 4 35 11 35 17 0 6 5 7 10 4 6 -3 10
-1 10 5 0 6 5 8 10 5 6 -3 13 2 17 12 4 10 10 20 14 23 7 5 22 180 21 240 0 8
2 22 5 30 3 8 7 42 9 75 17 254 41 375 74 375 13 0 20 -7 20 -18 0 -10 4 -22
9 -27 5 -6 12 -32 16 -60 3 -27 8 -59 11 -70 7 -33 33 -302 40 -420 3 -60 11
-132 16 -160 5 -27 10 -58 12 -67 1 -10 5 -21 9 -24 4 -4 7 -18 7 -31 0 -16 4
-22 12 -17 6 4 8 3 4 -4 -9 -15 33 -92 51 -92 8 0 17 -9 20 -20 4 -15 9 -18
18 -10 9 7 16 6 25 -5 7 -8 17 -15 22 -15 6 0 6 5 -1 14 -9 11 -6 13 13 11 18
-2 23 1 19 11 -3 8 1 14 10 14 8 0 18 7 21 16 3 9 12 14 20 11 7 -3 18 -1 24
5 8 8 15 8 26 -1 13 -11 15 -9 11 8 -2 12 0 21 6 21 5 0 9 -6 9 -12 0 -9 3
-10 8 -2 4 6 17 10 29 9 12 -1 20 1 18 5 -2 4 9 7 25 6 32 -1 36 -5 20 -24 -7
-9 -7 -9 2 -2 19 15 46 12 57 -7 6 -11 11 -13 11 -5 0 8 5 10 13 5 18 -11 37
-12 37 -2 0 6 20 8 44 7 26 -2 42 -7 39 -14 -2 -6 10 -10 31 -9 19 0 32 -3 30
-7 -3 -4 2 -8 11 -8 9 0 13 5 10 10 -11 17 21 11 48 -10 26 -20 77 -28 77 -11
0 6 12 6 32 0 40 -11 51 -11 44 -1 -2 4 0 14 6 22 8 12 9 12 4 -2 -4 -15 1
-17 39 -13 41 3 62 -8 33 -17 -7 -3 -4 -7 7 -12 11 -4 16 -4 13 0 -16 15 11
41 37 37 15 -3 25 -1 25 6 0 6 3 10 8 9 4 -1 20 4 35 10 16 7 32 12 37 12 5 0
17 11 28 25 11 14 29 25 40 25 11 0 26 8 33 17 12 14 12 16 0 8 -10 -6 -12 -4
-7 4 5 7 14 10 22 7 13 -5 19 6 15 27 -1 5 3 6 9 2 13 -8 70 32 70 50 0 8 6
18 14 22 18 10 68 82 63 91 -6 12 27 37 48 37 14 0 22 -8 26 -30 13 -72 21
347 15 780 -3 259 -6 500 -6 538 l0 67 -1870 0 c-1779 0 -1870 -1 -1861 -17z
m159 -20 c43 -62 101 -187 73 -157 -11 11 -111 173 -111 180 0 13 21 0 38 -23z
m126 -224 c22 -45 4 -34 -21 12 -13 24 -16 36 -8 29 8 -7 21 -25 29 -41z
m1159 -28 c80 -46 91 -65 85 -151 -4 -57 -9 -73 -29 -90 -84 -72 -199 -94
-318 -61 -132 37 -174 82 -175 191 -1 69 4 76 89 120 58 30 63 31 175 28 109
-4 118 -5 173 -37z m-928 -351 c3 -5 2 -10 -4 -10 -5 0 -13 5 -16 10 -3 6 -2
10 4 10 5 0 13 -4 16 -10z m31 -65 c14 -25 30 -45 35 -45 5 0 18 -20 29 -45
12 -25 30 -55 40 -65 11 -11 18 -20 15 -20 -3 0 2 -8 10 -17 8 -10 15 -22 14
-26 0 -5 11 -22 26 -37 15 -15 26 -31 26 -34 -2 -7 18 -41 65 -110 32 -48 38
-75 10 -45 -8 8 -70 104 -138 214 -166 267 -170 275 -164 275 3 0 17 -20 32
-45z m355 -551 c20 -41 35 -74 33 -74 -4 0 -104 147 -104 154 0 2 8 2 18 -1 9
-3 33 -38 53 -79z m2464 -394 c3 -5 1 -10 -4 -10 -6 0 -11 5 -11 10 0 6 2 10
4 10 3 0 8 -4 11 -10z"/>
<path d="M10850 8997 c-298 -296 -592 -583 -1785 -1747 -115 -113 -332 -321
-480 -464 -149 -142 -346 -336 -440 -432 l-170 -174 -2195 0 c-1207 -1 -2315
-1 -2462 -1 l-268 1 -307 308 c-268 269 -443 438 -1097 1062 -72 69 -253 237
-401 375 -339 314 -1047 997 -1160 1118 l-85 92 0 -732 0 -733 28 -17 c15 -9
92 -67 172 -128 l145 -110 -63 -3 c-54 -3 -74 2 -128 27 -35 16 -84 44 -109
61 l-45 31 0 -286 c0 -322 -5 -306 80 -254 54 33 123 49 134 30 4 -6 30 -11
57 -11 83 0 138 -18 146 -48 3 -14 3 -106 0 -206 -4 -100 -7 -270 -7 -378 l0
-198 -205 0 -205 0 0 -776 0 -776 205 3 c160 3 205 1 205 -9 0 -9 -29 -12
-117 -11 -65 1 -157 1 -205 0 l-88 -1 0 -28 0 -28 205 4 c185 4 205 3 205 -12
0 -15 -21 -16 -202 -14 l-203 3 -3 -327 -2 -328 135 0 c128 0 135 -1 135 -20
0 -19 -7 -20 -135 -20 l-135 0 0 -1920 0 -1920 794 0 c751 0 794 1 791 18 -2
9 -4 24 -4 32 -1 10 -13 15 -38 16 -20 0 -39 6 -41 12 -2 7 -7 10 -11 8 -11
-7 -10 178 2 192 7 9 6 20 -3 37 -10 18 -10 31 -3 47 7 17 5 33 -8 63 -18 40
-18 40 7 66 29 30 29 37 6 69 -11 16 -17 45 -18 83 l-1 58 86 -1 c116 -1 121
0 143 11 21 11 24 34 6 45 -19 12 -106 15 -113 4 -9 -15 -62 -12 -95 5 -30 16
-42 55 -17 55 6 1 0 8 -15 16 -16 8 -28 23 -28 33 0 34 93 46 211 26 37 -6 89
29 89 59 0 14 -5 28 -11 31 -12 8 -3 83 12 101 14 17 1 73 -22 103 l-21 26 24
3 c12 2 31 11 42 20 18 17 56 18 66 2 8 -12 151 1 147 14 -4 13 -157 29 -200
21 -23 -4 -28 -1 -25 13 1 9 -1 22 -5 29 -11 18 1 38 31 50 26 11 26 11 3 12
-20 1 -21 3 -11 16 11 13 8 15 -15 15 -23 0 -26 2 -15 15 10 12 40 15 154 15
77 0 146 -4 152 -8 12 -8 13 -56 2 -68 -4 -4 -3 -13 3 -20 15 -18 14 -121 -1
-139 -10 -12 -9 -22 5 -51 14 -30 17 -60 14 -173 -2 -75 0 -150 4 -167 6 -23
3 -40 -12 -65 -17 -29 -18 -41 -10 -79 27 -122 28 -140 13 -176 -8 -19 -12
-44 -9 -54 3 -10 -1 -35 -9 -56 -10 -27 -16 -94 -19 -211 l-4 -173 868 0 c768
0 868 2 863 15 -4 9 0 15 9 15 8 0 17 10 20 21 4 16 11 20 26 16 12 -3 21 -1
21 3 0 5 9 11 19 15 42 13 24 85 -21 85 -12 0 -18 8 -18 21 0 12 -5 19 -12 17
-17 -6 -51 39 -44 57 6 16 26 21 26 7 0 -5 10 -8 23 -8 19 1 22 -4 21 -32 -2
-33 12 -44 22 -17 4 8 15 15 25 15 23 0 24 -8 3 -31 -11 -12 -14 -24 -8 -36 7
-15 8 -14 12 10 3 28 22 38 22 12 0 -8 6 -14 12 -13 7 2 12 -3 10 -11 -2 -9 3
-11 14 -7 10 4 21 1 26 -6 11 -19 10 -28 -5 -28 -11 0 -14 -26 -8 -63 0 -4 13
-4 27 -1 17 4 29 2 35 -7 7 -11 9 -11 9 3 0 28 19 31 31 4 9 -20 9 -29 -1 -41
-11 -13 53 -15 618 -15 l630 0 6 25 c4 14 4 31 0 36 -4 7 -48 10 -113 9 -58
-2 -142 0 -186 3 -45 3 -100 2 -123 -4 -78 -17 -145 -16 -167 4 -19 17 -19 18
8 41 28 25 26 36 -6 31 -9 -2 -17 2 -17 9 0 12 -39 36 -67 42 -22 4 -44 32
-32 39 6 4 8 13 5 21 -3 8 1 17 9 20 23 9 18 20 -18 35 -42 17 -107 67 -107
84 0 12 57 42 72 37 5 -1 17 7 27 17 19 19 19 19 -7 30 -38 15 -121 21 -128 9
-7 -11 -24 9 -24 29 0 28 268 72 440 73 47 0 98 4 115 8 16 5 50 5 75 1 25 -4
98 -8 164 -8 112 -1 120 0 148 24 16 14 28 25 26 26 -86 14 -258 16 -373 5
-38 -4 -137 -8 -220 -10 -171 -4 -481 -38 -498 -55 -6 -6 -19 -11 -28 -11 -10
0 -19 -5 -21 -11 -2 -6 -19 -14 -38 -18 -59 -12 -47 -61 23 -95 12 -7 22 -18
22 -26 0 -17 -79 -42 -117 -37 -19 2 -28 -1 -28 -10 0 -7 -5 -13 -11 -13 -6 0
-25 -12 -42 -26 -22 -18 -39 -25 -59 -22 -15 3 -28 0 -28 -5 0 -5 -13 -6 -29
-2 -25 5 -30 3 -33 -14 -3 -19 -5 -20 -30 -7 -23 12 -29 12 -39 0 -19 -23 -29
-16 -29 19 -1 28 -2 30 -11 13 -9 -15 -13 -16 -20 -5 -10 16 -12 46 -3 36 3
-3 12 0 19 6 10 9 10 16 -1 33 -16 24 -10 36 14 26 12 -4 10 1 -5 18 -12 12
-25 42 -29 65 -3 24 -16 54 -30 68 -26 28 -31 66 -11 86 10 10 9 15 -6 25 -10
8 -17 26 -17 46 0 19 -7 38 -18 46 -14 11 -15 15 -3 23 7 5 10 14 7 20 -4 6
-2 11 4 11 6 0 8 5 4 12 -5 7 -9 21 -9 31 -1 10 -6 22 -12 25 -14 10 -33 48
-33 66 0 10 9 16 23 16 18 0 19 -2 7 -11 -12 -9 -12 -10 -1 -7 25 7 23 27 -3
34 -33 8 -40 31 -16 51 13 12 20 30 20 55 l0 38 -43 -6 c-39 -6 -45 -3 -60 20
-11 16 -13 26 -6 26 6 0 22 9 36 19 13 11 31 17 39 14 17 -6 56 25 48 38 -3 5
-21 9 -40 9 -44 0 -41 21 4 32 30 8 32 11 32 53 0 25 6 54 12 65 10 16 10 24
1 39 -10 15 -9 22 1 30 8 7 14 29 14 51 1 49 9 63 32 57 9 -2 35 -1 56 2 21 4
49 3 61 -2 21 -9 17 -13 -45 -43 -37 -18 -74 -34 -82 -34 -13 0 -13 -2 0 -9 8
-6 18 -7 22 -5 4 3 8 0 8 -5 0 -7 29 -11 76 -11 l76 0 -5 -27 c-3 -18 0 -31
10 -38 13 -10 13 -13 -1 -24 -14 -12 -16 -10 -16 8 0 12 -6 21 -15 21 -8 0
-14 -6 -13 -12 2 -9 -8 -13 -29 -12 -20 1 -34 -4 -37 -13 -9 -22 4 -35 28 -29
12 3 32 -1 44 -9 14 -10 23 -12 27 -5 5 8 11 7 22 -1 12 -10 19 -10 35 0 16
10 23 10 35 -1 9 -7 23 -13 31 -13 19 0 25 -16 12 -35 -9 -13 -11 -13 -19 -1
-8 12 -12 12 -26 -3 -10 -10 -24 -14 -34 -11 -9 4 -46 8 -82 10 -62 4 -66 2
-62 -16 4 -13 0 -19 -11 -19 -9 0 -16 -4 -16 -10 0 -15 42 -12 83 5 52 22 92
19 138 -10 25 -16 47 -24 60 -20 13 4 19 2 19 -9 0 -9 -5 -16 -10 -16 -6 0
-20 -8 -30 -18 -19 -18 -19 -18 0 -35 11 -9 22 -12 25 -7 7 12 67 10 82 -2 14
-11 0 -48 -17 -48 -6 0 -19 -9 -31 -21 -19 -19 -19 -20 -2 -18 10 1 36 -3 58
-9 22 -7 56 -12 75 -12 52 0 110 -19 110 -35 0 -8 -4 -15 -8 -15 -5 0 -17 -7
-28 -16 -10 -8 -14 -13 -7 -10 6 4 16 -2 22 -11 7 -13 23 -18 62 -19 34 0 55
-6 63 -16 6 -8 20 -20 31 -26 18 -9 23 -7 34 19 11 26 34 37 32 16 -1 -4 -1
-18 -1 -32 0 -20 -5 -25 -25 -25 -36 0 -46 -47 -15 -72 12 -10 28 -18 35 -18
7 0 25 -10 40 -22 25 -19 44 -22 234 -29 247 -10 327 -16 340 -23 5 -4 35 1
66 9 32 8 61 12 65 10 23 -14 106 47 94 67 -12 18 -11 42 1 50 16 12 43 -21
37 -44 -3 -12 -1 -19 4 -15 6 3 27 2 48 -3 33 -7 37 -6 31 8 -4 10 -7 22 -6
27 1 6 5 42 9 80 6 62 9 70 30 73 15 2 22 -2 22 -12 0 -21 16 -21 24 0 3 8 10
13 15 10 5 -4 12 0 14 6 4 8 6 7 6 -4 1 -12 9 -16 29 -15 23 2 27 -2 27 -23 0
-14 12 -37 28 -52 16 -16 27 -38 28 -55 1 -34 13 -68 25 -69 5 0 21 -4 35 -8
14 -4 112 -8 218 -9 156 -2 193 -5 201 -17 8 -12 11 -12 27 1 21 19 158 26
168 9 4 -6 10 -8 15 -5 4 3 13 -1 19 -9 9 -10 22 -11 59 -4 26 5 81 11 122 14
41 3 82 11 90 18 16 15 60 31 73 28 11 -3 8 26 -4 34 -20 12 -41 75 -30 88 6
7 8 22 4 34 -4 19 -1 22 21 22 14 0 26 5 26 10 0 6 11 10 25 10 18 0 25 5 25
20 0 19 9 23 102 46 16 3 25 10 22 16 -3 5 -8 7 -11 4 -8 -8 -43 13 -43 26 0
6 8 17 18 24 16 13 16 13 0 14 -24 0 -23 27 2 35 11 3 23 4 28 1 4 -2 23 -1
42 3 35 7 35 7 35 61 l0 55 60 5 c41 3 70 12 90 27 l30 22 -27 1 c-21 0 -28 6
-33 30 -4 16 -13 30 -21 30 -8 0 -14 5 -14 10 0 7 16 9 40 6 27 -3 40 -1 40 7
0 7 5 4 11 -5 5 -10 16 -18 24 -18 20 0 55 31 48 42 -3 5 3 15 12 22 12 9 16
21 13 39 -3 15 -1 24 3 21 5 -3 9 -2 9 3 0 16 -15 30 -47 47 -18 9 -33 21 -33
27 0 15 70 0 102 -22 14 -11 32 -19 40 -19 22 0 41 57 34 101 -6 38 -5 39 23
39 16 0 31 6 34 13 3 8 8 9 16 2 12 -12 81 -7 81 5 0 5 -8 10 -17 13 -17 4
-16 5 1 12 14 6 24 3 37 -13 20 -25 31 -27 59 -10 16 10 24 10 40 0 21 -13 60
-17 60 -6 0 4 -8 13 -17 20 -13 10 -14 13 -4 14 8 0 19 -6 25 -14 11 -14 97
-39 105 -31 2 3 -4 15 -15 27 -19 23 -19 23 2 5 27 -22 40 -22 23 1 -7 9 -2 7
12 -5 33 -30 69 -31 69 -1 l0 21 23 -20 c23 -21 77 -39 77 -25 0 9 -24 31 -97
88 -29 23 -50 44 -48 46 6 5 18 4 -162 14 -79 4 -143 11 -143 16 0 4 7 8 16 8
8 0 13 4 9 9 -3 5 -31 13 -63 17 l-57 7 37 13 c44 15 159 21 179 9 7 -5 22
-10 31 -12 10 -2 27 -4 37 -6 11 -2 38 -11 60 -22 23 -10 44 -15 48 -12 3 4 4
8 2 10 -73 57 -117 96 -111 101 3 4 -1 4 -9 1 -9 -3 -22 2 -30 12 -12 16 -12
17 2 8 8 -5 -3 6 -25 25 -22 19 -47 43 -56 53 -39 46 -95 95 -102 91 -4 -3 -8
2 -8 10 0 9 -4 16 -10 16 -5 0 -10 7 -10 15 0 8 -9 19 -21 25 -11 7 -18 14
-15 18 4 3 19 -3 34 -14 48 -35 58 -38 32 -9 l-25 28 40 -23 c22 -13 54 -34
71 -47 42 -31 67 -30 32 2 -16 13 -28 27 -28 30 0 12 45 -7 67 -28 13 -11 25
-18 28 -16 2 3 -8 15 -23 27 -15 11 -38 30 -52 42 l-25 20 30 -12 c17 -7 42
-20 57 -30 14 -10 31 -18 37 -18 6 0 11 -4 11 -10 0 -5 7 -6 17 -3 12 5 14 3
8 -7 -5 -8 -4 -11 3 -6 6 3 37 -11 69 -33 32 -21 83 -51 113 -66 30 -15 78
-43 107 -61 51 -32 129 -64 159 -64 20 0 39 -20 48 -48 4 -12 12 -22 17 -22 6
0 8 -4 4 -9 -3 -5 3 -11 12 -14 10 -2 -10 -4 -44 -3 -50 1 -59 -1 -50 -12 8
-11 1 -10 -27 2 -43 18 -61 15 -24 -5 12 -6 36 -23 51 -35 38 -32 10 -31 -37
1 -49 33 -78 34 -48 2 l22 -23 -31 -2 c-17 -1 -44 4 -60 12 -16 8 -29 13 -29
11 0 -3 19 -22 42 -43 30 -29 38 -41 28 -47 -8 -5 -11 -4 -6 3 3 6 -3 13 -14
17 -11 4 -33 18 -47 31 -15 13 -37 27 -50 30 -12 4 -21 10 -18 14 3 5 -4 6
-15 3 -18 -5 -12 -14 45 -69 51 -50 74 -65 106 -70 40 -7 64 -24 33 -24 -14 0
-15 -3 -6 -12 16 -16 15 -28 -3 -28 -11 0 -13 -7 -9 -29 5 -23 2 -30 -12 -34
-17 -4 -17 -5 -1 -6 22 -1 24 -51 2 -51 -18 0 -20 -16 -2 -24 10 -5 10 -7 0
-12 -7 -3 -13 -21 -13 -39 0 -18 -5 -35 -10 -37 -6 -2 -12 -36 -14 -75 -2 -43
-9 -79 -17 -89 -11 -13 -11 -18 -1 -21 6 -3 12 -9 12 -14 0 -4 -8 -6 -17 -2
-15 5 -16 3 -5 -8 16 -18 15 -49 -2 -49 -8 0 -17 7 -20 16 -3 8 -10 13 -15 9
-6 -3 -8 -12 -4 -20 4 -11 0 -14 -13 -9 -11 4 -16 4 -12 -1 4 -4 3 -14 -2 -21
-6 -6 -9 -16 -8 -22 2 -5 -1 -10 -6 -10 -5 0 -12 -5 -16 -12 -10 -17 -40 70
-43 124 -1 25 -6 46 -10 46 -5 0 -5 4 -2 10 3 5 1 18 -4 27 -9 16 -10 16 -11
-4 0 -13 -4 -23 -8 -23 -5 0 -7 -14 -6 -30 1 -17 -2 -33 -7 -36 -6 -3 -17 -23
-26 -45 -13 -34 -18 -38 -31 -27 -12 10 -14 10 -8 1 4 -7 3 -13 -2 -13 -6 0
-12 7 -16 15 -3 8 0 15 6 15 6 0 8 3 5 6 -10 10 -38 -17 -30 -29 4 -6 0 -8
-11 -4 -10 4 -19 1 -23 -9 -3 -8 -12 -13 -19 -10 -8 3 -11 0 -8 -9 3 -7 -4
-18 -15 -25 -12 -6 -21 -8 -21 -5 0 3 -9 1 -19 -5 -14 -7 -22 -7 -27 2 -4 6
-3 8 4 4 6 -3 13 -2 17 4 6 10 -7 14 -32 11 -7 -1 -13 7 -13 17 0 11 -8 23
-17 26 -15 6 -15 8 -3 16 12 8 12 10 -4 10 -12 0 -16 5 -12 15 3 9 0 15 -9 15
-8 0 -15 7 -15 15 0 8 -4 15 -10 15 -5 0 -10 9 -10 19 0 11 -7 26 -15 35 -9 8
-16 18 -15 21 0 3 -1 6 -1 8 -3 5 -9 64 -9 94 0 18 -4 33 -8 33 -4 0 -8 12 -8
28 -1 15 -2 47 -3 72 l-3 45 -14 -34 c-9 -19 -13 -45 -9 -58 3 -13 1 -23 -5
-23 -5 0 -10 5 -10 12 0 6 -3 9 -6 6 -3 -3 0 -15 7 -26 16 -26 6 -50 -23 -54
-15 -2 -23 -9 -22 -21 2 -20 -7 -22 -24 -5 -9 9 -12 9 -12 0 0 -7 -6 -12 -12
-11 -25 3 -39 -1 -34 -10 3 -4 29 -9 57 -10 63 -1 71 -7 42 -31 -24 -19 -30
-40 -13 -40 6 0 10 -9 10 -20 0 -10 8 -23 17 -28 16 -9 15 -11 -1 -27 -11 -11
-13 -21 -8 -29 10 -12 10 -52 -1 -62 -3 -4 4 -15 16 -24 21 -17 21 -19 3 -26
-11 -4 -21 -2 -26 5 -11 19 -19 -21 -13 -66 2 -21 1 -56 -4 -78 -10 -44 4 -88
24 -80 30 11 10 -26 -32 -61 -28 -22 -45 -44 -45 -58 0 -17 2 -18 10 -6 8 13
10 13 10 -1 0 -9 9 -28 21 -43 29 -37 16 -93 -26 -116 -35 -19 -62 -84 -45
-105 14 -16 -8 -68 -26 -61 -7 3 -15 -2 -18 -10 -3 -8 -17 -14 -31 -14 -14 0
-25 -4 -25 -10 0 -5 -13 -16 -30 -25 -17 -9 -30 -11 -30 -5 0 5 -6 10 -14 10
-8 0 -16 6 -19 13 -6 18 -18 3 -21 -27 -3 -22 -1 -24 11 -14 11 9 20 5 45 -23
17 -19 37 -33 45 -31 16 3 16 1 3 -32 -7 -19 -5 -30 10 -48 16 -19 19 -20 20
-5 0 9 -4 17 -10 17 -5 0 -10 4 -10 9 0 5 13 8 30 7 29 -2 29 -1 15 21 -20 30
-19 45 5 73 11 13 23 34 26 47 11 43 44 22 44 -28 0 -12 -5 -16 -15 -13 -11 5
-13 2 -9 -11 4 -9 17 -21 30 -26 13 -4 24 -16 24 -26 0 -15 -2 -15 -9 -4 -7
11 -10 9 -13 -10 -2 -14 -14 -29 -30 -37 -32 -15 -36 -38 -9 -47 11 -3 26 -19
33 -35 l13 -30 1912 0 1913 0 0 2206 c0 1257 -4 2203 -9 2200 -10 -7 -385 -46
-436 -46 -34 0 -35 1 -35 39 0 24 6 44 17 52 9 8 17 12 18 9 1 -3 10 4 21 14
19 19 19 20 -4 14 -18 -5 -26 0 -39 25 -14 27 -18 82 -24 347 -5 173 -11 431
-15 574 -6 218 -5 258 7 254 7 -2 14 -13 15 -24 0 -10 1 -35 2 -54 2 -27 5
-31 12 -20 8 13 10 12 10 -2 0 -10 -4 -18 -10 -18 -5 0 -10 -5 -10 -11 0 -5 5
-7 10 -4 6 4 10 -29 10 -92 1 -115 9 -424 15 -503 2 -30 4 -124 4 -209 1 -85
4 -152 7 -149 3 3 5 241 5 529 1 288 4 549 8 579 12 97 21 -238 21 -764 0
-269 1 -491 4 -493 2 -2 38 3 80 11 41 9 85 16 98 16 13 0 41 5 62 11 29 8 35
13 25 20 -10 6 -14 29 -14 76 0 67 -1 68 -27 71 -34 4 -37 17 -5 20 54 4 109
3 114 -2 3 -3 8 -28 11 -56 2 -27 9 -50 15 -50 6 0 7 17 4 42 -6 43 7 83 24
73 10 -7 13 624 3 663 -11 41 -24 23 -24 -35 0 -68 -25 -130 -65 -161 -14 -12
-24 -25 -21 -30 3 -5 -3 -31 -12 -58 l-18 -49 -51 0 c-45 0 -51 2 -50 20 0 11
6 23 12 28 7 5 6 9 -1 15 -7 4 -12 49 -13 121 -1 62 -3 117 -6 121 -3 5 -60 2
-67 -4 0 0 -4 -111 -8 -246 l-6 -245 -4 273 c-2 149 -5 284 -6 300 -2 15 -6
56 -9 91 -5 48 -4 66 6 72 11 6 11 11 1 21 -8 8 -11 37 -10 83 l2 70 5 -70 5
-70 6 100 5 100 36 3 c31 3 42 -4 97 -55 75 -71 92 -113 88 -214 l-3 -71 49 5
c26 4 53 9 58 12 6 4 10 139 10 356 l0 349 -157 0 c-87 0 -163 4 -169 8 -14 9
-28 514 -18 687 l7 127 41 -6 c43 -6 115 -13 229 -21 l67 -4 0 1184 c0 652 -1
1185 -2 1185 -2 0 -158 -155 -348 -343z m-171 -2514 l1 -303 -190 0 -190 0 0
318 1 317 182 135 182 135 6 -150 c4 -82 7 -286 8 -452z m-10083 474 c84 0 93
-2 98 -20 7 -30 8 -599 0 -684 l-7 -73 -125 0 -125 0 7 353 c3 193 9 373 12
399 6 44 8 47 27 37 11 -6 62 -11 113 -12z m9160 -28 c4 -7 7 -132 6 -278 0
-172 3 -259 9 -246 6 13 7 -13 3 -75 -7 -100 -4 -987 3 -1055 2 -22 6 -177 8
-345 3 -168 8 -355 11 -416 l6 -110 61 13 c83 18 321 53 357 53 19 0 30 -6 33
-17 2 -10 4 162 3 382 -1 220 0 351 4 290 3 -60 7 -227 8 -369 1 -143 5 -262
7 -265 3 -2 5 100 5 227 0 164 3 232 11 232 8 0 10 -75 8 -267 -2 -148 -2
-254 0 -238 l4 30 6 -30 c6 -26 10 -30 36 -27 17 2 31 5 32 6 1 1 5 47 9 104
l7 102 28 0 c16 0 28 -3 28 -7 -1 -5 -1 -16 0 -25 1 -21 41 -24 71 -5 25 15
39 -2 41 -48 1 -16 2 -45 4 -62 1 -18 -1 -33 -6 -33 -5 0 -9 12 -9 28 0 41
-12 102 -19 102 -8 0 3 -128 12 -136 2 -3 13 -6 23 -7 15 -1 19 -9 19 -39 1
-21 -4 -38 -10 -38 -5 0 -4 -4 4 -9 10 -6 -5 -11 -45 -16 -32 -3 -104 -13
-159 -21 -55 -8 -181 -25 -280 -39 -99 -13 -207 -29 -240 -34 -33 -6 -85 -12
-116 -15 l-56 -6 -2 61 c-1 46 3 70 19 96 35 60 18 87 -39 62 -23 -10 -32 -23
-41 -57 -10 -39 -30 -51 -30 -16 0 8 -4 14 -9 14 -11 0 -21 -59 -21 -116 1
-39 -1 -42 -31 -48 -21 -4 -40 -1 -55 9 -26 17 -38 19 -30 7 7 -11 -79 -52
-107 -51 -14 0 -17 3 -7 6 21 9 56 43 42 43 -6 0 -33 -4 -59 -9 -26 -6 -81
-12 -122 -15 -43 -4 -85 -13 -99 -22 -34 -22 -113 -25 -129 -5 -14 18 -17 57
-5 65 5 3 81 15 168 26 87 11 172 23 187 26 l28 6 0 81 c-1 45 1 111 3 147 2
36 5 358 6 715 3 905 14 803 36 -336 l7 -335 74 -3 c52 -1 73 1 68 9 -4 6 -16
10 -27 8 -12 -2 -23 2 -25 8 -4 12 40 24 89 24 28 0 30 -2 26 -34 -3 -30 -2
-32 15 -22 14 8 17 18 12 41 -10 50 -17 1536 -7 1580 5 22 14 39 20 38 7 -2
12 1 12 5 0 18 45 6 52 -13 3 -11 7 78 8 198 1 119 4 222 5 227 1 6 3 75 4
155 1 119 4 145 15 145 8 0 18 -5 22 -11z m-8916 -46 c47 0 97 -2 113 -6 l27
-7 0 -345 0 -346 -127 3 -127 3 2 260 c3 281 11 463 21 447 3 -6 44 -10 91 -9z
m757 -60 c34 -24 65 -43 68 -43 3 0 11 -5 18 -10 7 -6 46 -36 87 -66 41 -31
78 -61 82 -68 4 -6 8 -8 8 -3 0 4 8 -1 19 -10 10 -10 46 -44 80 -76 33 -31 61
-55 61 -52 0 4 17 -10 37 -29 l38 -35 2 -1188 c2 -653 3 -1192 4 -1198 0 -5
-5 -199 -10 -430 -6 -231 -12 -512 -14 -625 -2 -113 -7 -214 -10 -225 -16 -58
-26 -74 -47 -70 -16 3 -18 1 -11 -13 8 -14 5 -17 -13 -17 -12 1 -27 5 -34 9
-8 4 -10 2 -6 -7 8 -22 -37 -30 -58 -11 -9 9 -22 13 -27 9 -6 -3 -14 0 -17 8
-2 7 -11 14 -19 15 -8 1 -22 3 -30 4 -8 1 -14 8 -13 17 2 9 -2 15 -9 14 -7 -2
-10 3 -8 10 9 23 -11 40 -32 29 -14 -8 -20 -8 -20 1 -2 47 -14 102 -22 105 -6
2 -8 9 -4 15 4 7 -2 5 -12 -3 -17 -14 -18 -13 -12 3 4 11 1 17 -9 17 -9 0 -13
-5 -9 -12 4 -7 1 -6 -7 3 -13 16 -54 19 -76 5 -7 -4 -17 -4 -24 0 -7 4 -8 3
-4 -4 4 -7 2 -12 -4 -12 -6 0 -13 7 -17 16 -4 10 -8 12 -12 5 -5 -8 -13 -7
-27 3 -19 14 -19 44 -16 1963 1 1071 5 1965 8 1985 5 36 6 36 32 25 15 -6 55
-31 89 -54z m7916 30 c-13 -2 -33 -2 -45 0 -13 2 -3 4 22 4 25 0 35 -2 23 -4z
m720 -290 c4 -108 7 -238 7 -290 l0 -93 -217 2 -218 3 -3 105 c-5 157 -4 158
90 231 101 79 321 239 329 239 3 0 9 -88 12 -197z m-643 -153 c0 -115 1 -213
3 -217 1 -5 -46 -9 -105 -11 l-108 -3 0 148 1 148 33 25 c18 14 61 46 96 73
34 26 66 47 71 47 5 0 9 -94 9 -210z m-250 -95 l0 -136 -122 3 -123 3 -3 41
c-3 39 0 43 45 76 26 20 80 61 118 91 39 31 73 56 78 57 4 0 7 -61 7 -135z
m17 -202 c-3 -10 -5 -2 -5 17 0 19 2 27 5 18 2 -10 2 -26 0 -35z m0 -125 c-2
-18 -4 -6 -4 27 0 33 2 48 4 33 2 -15 2 -42 0 -60z m-5496 -164 c10 -12 13
-180 15 -847 1 -457 6 -832 11 -833 4 -1 25 -5 46 -9 35 -6 37 -8 36 -43 -1
-20 -5 -48 -9 -62 -7 -22 -8 -21 -9 13 -1 41 -21 43 -21 2 0 -13 -5 -27 -11
-30 -21 -13 -220 -5 -249 10 -25 13 -29 13 -34 0 -8 -21 3 -45 20 -45 9 0 14
-11 14 -29 0 -36 18 -51 77 -62 26 -5 50 -13 53 -17 4 -4 4 -64 1 -134 -4 -83
-3 -124 4 -120 6 3 22 13 36 23 14 10 28 17 30 14 3 -2 5 4 5 14 0 11 -6 17
-13 14 -10 -4 -13 13 -13 68 0 41 -3 84 -6 97 -6 20 -3 22 34 22 22 0 47 -7
55 -15 24 -23 10 -84 -26 -122 -37 -39 -21 -44 22 -7 17 14 38 24 46 20 13 -5
85 -135 85 -154 0 -4 -35 -4 -77 0 -43 3 -84 7 -90 7 -7 1 -13 10 -13 21 0 11
-5 20 -10 20 -6 0 -10 -17 -10 -37 1 -21 -1 -50 -4 -65 -4 -15 -2 -30 4 -33 5
-3 10 -15 10 -26 0 -10 7 -19 15 -19 11 0 15 12 15 51 0 37 -3 48 -12 43 -7
-4 -5 1 4 11 16 17 24 18 99 6 45 -7 89 -17 98 -22 9 -5 61 -23 116 -40 55
-17 102 -35 106 -40 3 -5 34 -15 70 -24 58 -13 60 -14 14 -9 -27 3 -68 13 -90
21 -22 8 -67 23 -100 33 -33 10 -68 21 -77 25 -15 6 -18 1 -18 -34 0 -36 3
-41 23 -42 18 -1 16 -3 -8 -9 -26 -7 -25 -8 15 -7 25 0 93 -7 152 -18 94 -16
113 -17 149 -5 33 11 38 15 23 21 -13 5 -14 8 -4 8 8 0 24 -4 35 -8 18 -7 17
-9 -8 -26 -40 -26 -102 -29 -267 -12 -80 8 -173 12 -207 10 -60 -5 -79 -15
-49 -26 22 -9 324 -32 412 -32 74 0 85 3 134 33 l53 33 80 -19 81 -19 -71 -45
c-107 -70 -111 -71 -172 -65 -100 10 -515 56 -551 62 -30 4 -29 3 10 -10 25
-8 151 -28 280 -45 128 -17 236 -33 239 -35 7 -7 -27 -6 -99 5 -36 5 -117 14
-180 20 -63 6 -130 13 -148 15 -23 4 -34 1 -39 -11 -3 -8 -11 -13 -18 -10 -8
3 -15 -5 -17 -19 -4 -20 1 -27 31 -41 137 -63 167 -80 195 -112 17 -19 31 -46
32 -60 l1 -24 -146 6 c-80 3 -163 2 -183 -3 -31 -7 -38 -6 -38 6 0 31 -45 133
-62 138 -22 8 -32 36 -16 46 11 7 11 12 0 29 -8 14 -9 26 -3 38 11 21 10 92
-1 85 -5 -2 -17 -6 -28 -8 -19 -4 -20 0 -16 36 3 21 9 45 13 52 4 6 8 28 9 47
2 67 4 72 19 67 8 -4 17 -1 21 5 5 7 9 7 13 -1 5 -7 16 -1 32 16 17 19 18 23
4 12 -22 -17 -69 -24 -59 -8 3 6 -3 5 -15 -3 -12 -7 -21 -18 -21 -25 0 -7 -7
-13 -15 -13 -25 0 -43 -42 -48 -115 -10 -123 -21 -156 -44 -128 -8 10 -12 13
-9 6 4 -6 2 -14 -3 -17 -8 -5 -27 36 -35 77 -16 76 -33 87 -42 27 -4 -22 -11
-40 -16 -40 -6 0 -8 -6 -5 -14 3 -8 -1 -17 -9 -20 -8 -3 -13 -2 -10 2 3 5 -4
15 -15 22 -10 8 -19 20 -19 27 0 7 -5 13 -11 13 -5 0 -7 -6 -3 -12 4 -7 -11 5
-32 27 -22 22 -38 43 -37 46 3 8 -29 92 -37 99 -4 3 -10 14 -14 25 l-8 20 -8
-20 c-5 -11 -11 -33 -15 -49 -6 -29 -16 -29 -23 2 -4 20 -21 140 -22 162 0 13
-2 13 -10 -1 -8 -13 -13 -32 -24 -89 -3 -18 -14 -16 -39 5 -10 9 -15 20 -12
26 4 5 3 9 -2 8 -19 -3 -32 3 -57 27 -23 24 -26 25 -27 8 0 -16 -2 -15 -10 5
-6 14 -15 21 -24 17 -10 -4 -18 7 -26 37 -13 49 -35 95 -56 115 -8 8 -13 26
-12 41 3 31 -10 75 -19 66 -9 -9 -29 161 -23 198 2 15 8 27 13 27 6 0 8 -7 4
-15 -3 -8 -1 -15 3 -15 7 0 16 76 26 227 1 13 6 26 11 30 5 5 6 4 2 -1 -4 -4
-2 -20 3 -34 5 -14 10 -40 11 -59 2 -41 23 -39 24 3 1 33 19 155 24 162 2 1 3
6 4 11 0 6 6 15 13 22 9 9 11 8 7 -7 -7 -25 20 -62 31 -44 5 9 4 11 -3 6 -8
-5 -12 0 -12 13 0 14 5 19 15 15 9 -4 15 0 15 9 0 9 3 23 7 33 5 13 3 15 -7 9
-9 -6 -11 -4 -6 4 5 7 13 10 20 8 6 -3 12 8 13 27 2 53 7 76 15 76 4 0 5 7 2
15 -4 8 -2 15 2 15 11 0 10 72 -1 90 -5 9 -4 11 3 6 14 -8 14 -9 16 69 1 33 5
66 9 73 11 16 1 45 -13 37 -15 -10 1 28 19 44 15 12 14 13 -1 8 -15 -5 -16 -1
-11 23 3 18 0 36 -7 45 -11 13 -10 14 5 9 14 -6 16 -4 9 7 -4 8 -7 22 -6 32 2
9 -2 17 -8 17 -6 0 -8 -5 -4 -12 4 -7 3 -8 -4 -4 -6 4 -9 13 -6 21 4 8 10 13
14 10 4 -3 11 3 15 12 3 10 1 19 -4 21 -6 2 -8 8 -5 14 4 6 -2 5 -15 -1 -14
-8 -21 -8 -21 -1 0 5 4 10 8 10 4 0 7 15 7 33 -1 25 -5 32 -21 30 -10 -1 -14
0 -8 3 8 3 9 19 3 51 -5 25 -8 68 -6 94 1 27 -2 51 -8 54 -6 3 -5 7 2 11 9 4
10 11 3 25 -6 10 -8 19 -4 19 3 0 1 7 -6 15 -10 12 -10 15 0 15 7 0 10 7 6 15
-3 8 -1 15 5 15 7 0 10 14 7 34 -2 19 -1 33 3 30 8 -5 21 25 15 35 -3 4 5 14
16 22 12 8 31 24 43 36 25 26 45 15 45 -24 0 -13 5 -23 10 -23 6 0 10 7 10 16
0 24 41 92 59 99 9 4 60 9 113 12 95 6 97 6 122 -22 l25 -27 12 25 c8 17 22
27 43 30 56 8 143 2 160 -12 14 -12 16 -10 16 11 0 40 18 49 41 22z m4778
-365 c1 -190 4 -515 8 -722 6 -367 7 -375 25 -352 14 18 18 40 18 96 0 80 11
89 15 12 1 -26 3 -53 4 -58 0 -6 31 -9 79 -7 81 4 129 -8 138 -33 9 -22 -3
-30 -20 -16 -35 29 -176 23 -176 -7 0 -5 31 -18 69 -30 37 -12 76 -31 86 -42
10 -11 21 -17 25 -15 4 3 11 -2 14 -11 3 -8 2 -12 -4 -9 -16 10 -12 -22 5 -39
8 -8 15 -17 15 -20 0 -3 -7 -6 -15 -6 -8 0 -15 9 -15 19 0 10 -6 21 -14 24 -8
3 -16 16 -19 29 -4 20 -4 19 -6 -6 0 -16 6 -34 14 -40 10 -8 12 -16 5 -26 -14
-23 -30 -1 -33 47 -3 52 -17 68 -74 87 -51 17 -63 15 -43 -9 10 -13 9 -15 -9
-15 -11 0 -21 4 -21 9 0 5 -9 11 -20 14 -14 4 -33 -6 -60 -31 -50 -44 -96
-119 -185 -299 -47 -95 -51 -108 -36 -99 25 16 0 -28 -41 -72 -51 -55 -164
-268 -204 -386 -27 -77 -53 -208 -59 -287 -2 -29 -9 -55 -17 -60 -10 -7 -10
-9 0 -9 6 0 12 -8 11 -17 0 -11 -3 -13 -6 -5 -2 6 -11 12 -18 12 -7 0 -16 15
-19 34 -4 19 -13 37 -22 40 -8 3 -12 11 -8 17 4 8 3 9 -4 5 -7 -4 -12 -17 -12
-30 0 -12 -6 -31 -14 -41 -7 -10 -12 -28 -10 -39 3 -12 1 -15 -2 -7 -5 11 -8
11 -15 0 -15 -25 -20 -10 -34 89 -4 28 -11 52 -15 52 -5 0 -11 -26 -15 -57 -3
-32 -8 -83 -11 -113 -3 -30 -8 -63 -11 -75 -2 -11 -5 -26 -7 -33 -1 -8 -7 -17
-12 -20 -5 -4 -9 -13 -9 -21 0 -8 -7 -16 -15 -18 -13 -4 -13 -3 0 6 18 12 11
20 -26 27 -15 3 -33 13 -41 22 -11 15 -12 12 -8 -18 3 -19 3 -29 -1 -22 -9 19
-24 14 -17 -5 6 -16 5 -16 -10 -4 -15 12 -17 12 -12 -1 3 -8 -4 -23 -15 -33
-18 -16 -20 -17 -14 -2 8 22 -5 22 -23 0 -8 -10 -11 -12 -7 -4 6 11 2 13 -17
7 -73 -20 -73 -20 -66 -2 4 9 2 16 -3 16 -6 0 -10 -4 -10 -9 0 -6 -9 -9 -19
-8 -21 1 -19 -7 -38 187 -4 41 -8 78 -9 83 -1 4 -3 26 -4 50 -2 40 -3 39 -11
-18 -4 -33 -11 -121 -14 -196 -5 -106 -10 -136 -21 -136 -8 0 -16 15 -20 34
-10 51 -23 39 -27 -24 -2 -32 -4 94 -5 279 -1 185 -6 339 -10 342 -4 2 -7 -25
-5 -62 l2 -67 -14 80 c-13 73 -18 82 -57 120 -43 41 -91 75 -105 75 -4 0 4
-11 19 -25 15 -14 31 -25 37 -25 12 0 71 -68 71 -82 0 -9 -3 -9 -12 0 -7 7
-19 12 -28 12 -9 0 -24 15 -34 33 -9 17 -14 23 -10 12 4 -11 8 -58 9 -104 1
-54 6 -86 13 -89 7 -2 12 -8 12 -14 0 -6 -7 -4 -17 3 -14 12 -16 12 -11 -1 3
-8 -1 -27 -9 -42 -7 -16 -11 -28 -8 -28 4 0 3 -5 0 -10 -4 -7 -16 -1 -31 15
-13 14 -36 28 -51 31 -15 3 -98 -4 -183 -15 -85 -11 -211 -25 -280 -32 -69 -6
-131 -16 -137 -21 -7 -6 -37 -56 -66 -112 -76 -145 -122 -211 -161 -230 -19
-9 -40 -16 -48 -16 -7 0 6 9 29 20 49 22 90 79 172 239 28 54 56 102 63 108 7
5 105 20 218 32 361 40 461 63 460 105 0 6 -5 3 -11 -6 -17 -30 -48 -35 -520
-83 l-156 -16 -102 63 -103 62 72 12 c70 12 72 12 138 -19 86 -40 132 -43 359
-23 224 20 234 22 227 40 -6 15 -174 14 -289 -3 -118 -18 -207 -14 -272 12
l-58 22 52 3 c29 2 75 -4 104 -12 43 -13 67 -14 153 -4 55 6 112 10 126 9 18
0 21 2 11 8 -21 13 -31 99 -15 116 15 14 83 31 168 41 61 7 70 -2 66 -70 -2
-45 15 -42 25 6 l7 32 15 -25 14 -24 -7 25 c-4 14 -13 34 -20 44 -11 16 -11
25 1 54 19 43 19 48 0 56 -12 4 -14 0 -10 -17 9 -37 -8 -47 -110 -62 -54 -8
-100 -15 -101 -15 -2 0 14 27 36 61 22 34 42 70 46 81 4 13 12 18 25 15 12 -3
19 0 19 9 0 8 -4 14 -10 14 -5 0 -10 9 -10 20 0 11 5 20 11 20 6 0 9 -7 6 -14
-4 -10 -1 -13 7 -10 8 3 28 -13 47 -37 34 -43 156 -149 172 -149 5 0 7 64 5
150 l-4 151 25 12 c27 13 49 64 50 115 l1 32 -140 0 c-144 0 -150 -2 -130 -41
9 -16 7 -19 -8 -19 -26 0 -59 41 -60 76 0 16 -1 34 -2 39 -6 31 2 35 68 35 37
0 92 -7 122 -15 30 -8 61 -15 68 -15 9 0 12 174 12 839 0 856 1 884 36 836 12
-16 14 -16 26 10 11 25 16 27 55 22 29 -3 49 -12 62 -28 19 -23 20 -24 49 -7
25 15 31 16 41 4 11 -13 17 -12 44 4 27 15 43 16 105 9 41 -4 80 -13 88 -20 7
-6 20 -9 28 -6 8 3 19 0 25 -7 9 -11 13 -22 20 -66 1 -3 6 2 11 10 9 13 10 13
11 0 0 -8 6 5 13 29 14 52 28 60 53 32 9 -12 24 -21 31 -21 19 0 45 -28 37
-40 -3 -6 1 -7 10 -4 11 5 14 2 9 -10 -3 -9 -1 -16 5 -16 6 0 11 7 11 15 0 18
16 20 23 3 2 -7 3 -85 2 -174 -3 -161 -11 -204 -40 -204 -7 0 -17 -5 -21 -12
-5 -8 -2 -9 10 -5 12 5 15 3 10 -5 -4 -7 -8 -22 -9 -35 0 -12 -9 -29 -20 -38
-20 -15 -20 -15 0 -8 18 6 19 5 5 -12 -14 -17 -13 -18 2 -12 12 4 15 2 11 -9
-3 -8 -8 -12 -11 -10 -10 11 -31 -16 -25 -31 4 -10 2 -14 -4 -10 -5 3 -10 0
-10 -8 0 -8 4 -15 9 -15 4 0 8 -7 8 -15 0 -8 6 -15 13 -16 10 0 10 -2 0 -6 -7
-2 -13 -11 -13 -18 0 -7 6 -15 13 -18 6 -2 16 -6 21 -8 5 -2 11 5 13 16 4 17
14 207 14 259 0 36 13 5 15 -37 2 -47 16 -239 20 -277 1 -14 3 -37 3 -52 1
-32 24 -38 40 -10 6 9 11 14 11 10 1 -31 20 -62 31 -51 4 4 9 22 11 40 1 17
10 36 20 42 16 10 18 7 19 -34 1 -25 3 -54 4 -65 1 -11 3 -27 4 -36 0 -8 6
-12 11 -9 6 3 10 5 10 3 1 -2 3 -32 7 -68 6 -71 23 -107 23 -50 0 28 6 37 26
47 15 7 31 10 37 6 6 -3 7 -1 3 5 -5 8 1 12 17 12 50 0 50 -1 52 488 1 252 6
468 10 481 4 13 13 21 23 19 25 -5 29 -92 36 -663 3 -269 8 -507 11 -529 5
-46 14 -60 16 -25 1 19 3 16 10 -11 4 -19 7 256 6 611 -2 550 0 650 13 673 13
25 15 26 21 9 4 -10 8 -174 8 -364z m-1259 362 c0 -6 -4 -13 -10 -16 -5 -3
-10 1 -10 9 0 9 5 16 10 16 6 0 10 -4 10 -9z m2919 -267 c1 -112 4 -209 7
-217 3 -8 1 -18 -4 -21 -13 -8 -18 71 -19 314 -1 121 2 182 7 161 4 -19 9
-126 9 -237z m-1214 -481 c4 -286 4 -526 1 -532 -4 -5 -13 -8 -21 -4 -13 4
-15 62 -15 397 0 216 3 503 7 637 7 224 8 235 14 134 4 -60 10 -345 14 -632z
m1162 625 c-2 -24 -4 -7 -4 37 0 44 2 63 4 43 2 -21 2 -57 0 -80z m-4545 86
c129 -44 209 -193 167 -313 -10 -28 -9 -38 10 -71 28 -50 29 -147 2 -207 -30
-65 -93 -127 -162 -158 -55 -24 -70 -27 -143 -23 -127 7 -211 60 -266 170 -49
99 -39 230 22 296 17 17 21 33 19 71 -3 60 16 106 66 161 73 82 181 110 285
74z m-3119 -80 c8 -68 1 -287 -10 -332 l-5 -23 -15 21 c-11 16 -15 61 -16 198
-1 97 1 185 6 195 14 36 32 10 40 -59z m-70 -62 c2 -64 1 -108 -4 -100 -5 8
-9 -10 -10 -47 -1 -45 -3 -54 -9 -35 -10 31 -13 294 -3 303 15 16 21 -13 26
-121z m-83 -99 c0 -102 -2 -184 -5 -181 -14 14 -13 368 1 368 2 0 4 -84 4
-187z m-980 68 c0 -6 -4 -12 -8 -15 -5 -3 -9 1 -9 9 0 8 4 15 9 15 4 0 8 -4 8
-9z m8797 -43 c-3 -7 -5 -2 -5 12 0 14 2 19 5 13 2 -7 2 -19 0 -25z m-8789
-23 c-3 -3 -9 2 -12 12 -6 14 -5 15 5 6 7 -7 10 -15 7 -18z m1519 -197 c-3 -8
-6 -5 -6 6 -1 11 2 17 5 13 3 -3 4 -12 1 -19z m7325 -71 c3 -13 1 -32 -3 -43
-5 -13 -8 -7 -8 24 -1 46 4 55 11 19z m-45 -24 c-3 -10 -5 -4 -5 12 0 17 2 24
5 18 2 -7 2 -21 0 -30z m-7082 -103 c3 -5 1 -10 -4 -10 -6 0 -11 5 -11 10 0 6
2 10 4 10 3 0 8 -4 11 -10z m5102 -142 c-3 -7 -5 -2 -5 12 0 14 2 19 5 13 2
-7 2 -19 0 -25z m-3 -33 c-4 -8 -11 -15 -16 -15 -6 0 -5 6 2 15 7 8 14 15 16
15 2 0 1 -7 -2 -15z m2726 1 c0 -7 -9 -16 -21 -19 -20 -5 -20 -5 -3 14 20 23
24 23 24 5z m-5868 -33 c37 -43 25 -72 -14 -36 -38 35 -77 -28 -44 -72 14 -19
15 -20 45 -2 30 18 31 18 31 -2 0 -22 -35 -51 -62 -51 -9 0 -30 11 -45 24 -23
20 -28 32 -28 71 0 37 5 51 24 66 29 24 73 25 93 2z m116 5 c12 -16 52 -131
52 -153 0 -19 -29 -20 -36 0 -7 17 -59 21 -69 5 -3 -5 -15 -10 -26 -10 -16 0
-18 5 -13 28 4 15 14 43 22 62 8 19 18 45 23 58 9 24 31 29 47 10z m173 2 c21
-12 27 -74 9 -85 -6 -4 -4 -17 5 -35 8 -16 15 -34 15 -40 0 -21 -37 -9 -59 20
-25 34 -41 32 -41 -6 0 -19 -5 -25 -17 -22 -15 3 -18 17 -21 91 l-3 87 46 0
c26 0 55 -5 66 -10z m130 -17 c5 -16 12 -35 15 -43 4 -10 10 -1 18 25 14 50
37 52 53 5 l11 -35 12 33 c8 22 18 32 29 30 18 -4 18 -34 -3 -114 -16 -65 -39
-69 -59 -12 -11 31 -16 36 -16 20 -2 -57 -40 -81 -62 -40 -14 26 -39 115 -39
141 0 27 29 20 41 -10z m273 -48 c13 -40 25 -64 28 -55 4 12 9 13 27 3 11 -7
28 -13 37 -13 22 0 12 24 -12 29 -48 8 -70 63 -38 95 29 30 114 12 114 -24 0
-18 -22 -21 -45 -6 -16 10 -26 12 -30 5 -9 -14 -1 -21 38 -34 27 -8 33 -16 35
-45 3 -24 -2 -38 -14 -47 -23 -17 -80 -17 -96 1 -11 11 -14 11 -24 -2 -10 -13
-14 -12 -32 6 -22 22 -62 30 -62 12 0 -13 -38 -32 -50 -25 -9 6 8 74 35 140
13 30 20 36 42 33 22 -3 28 -12 47 -73z m216 39 c0 -31 3 -35 23 -32 12 2 21
9 19 17 -5 25 9 51 28 51 26 0 33 -30 25 -105 -6 -54 -11 -65 -26 -65 -12 0
-19 9 -21 28 -2 19 -9 28 -25 30 -17 3 -22 -2 -25 -25 -4 -37 -33 -43 -42 -8
-4 15 -4 53 0 86 5 49 10 59 25 59 15 0 19 -7 19 -36z m4820 -289 c6 4 10 -21
10 -64 0 -41 -4 -71 -10 -71 -5 0 -10 -5 -10 -11 0 -5 5 -7 12 -3 7 4 8 3 4
-4 -22 -36 -26 5 -24 231 2 198 3 212 5 79 2 -102 7 -161 13 -157z m7 103 c-2
-13 -4 -3 -4 22 0 25 2 35 4 23 2 -13 2 -33 0 -45z m-4752 -79 c156 -12 213
-19 241 -29 13 -5 26 -4 32 2 10 10 20 8 152 -23 19 -5 58 -28 87 -51 94 -78
176 -203 344 -523 66 -127 84 -155 99 -150 22 7 34 -19 20 -44 -5 -10 -6 -21
-2 -25 3 -4 -7 -2 -23 4 -35 14 -135 5 -180 -15 l-30 -14 35 7 c70 14 117 8
144 -17 34 -32 33 -64 -3 -126 -41 -71 -67 -91 -141 -110 -115 -29 -343 -96
-429 -126 l-85 -29 -225 9 c-415 18 -649 20 -1056 11 l-404 -10 -133 46 c-73
25 -209 65 -303 90 -93 24 -172 48 -175 52 -15 18 -61 135 -63 160 -2 23 5 31
45 52 43 22 51 23 100 13 65 -13 76 -9 17 7 -55 15 -114 7 -149 -19 l-28 -20
-6 21 c-3 12 0 29 7 37 10 12 9 14 -5 8 -15 -5 -18 -1 -18 29 0 20 8 48 19 62
10 15 57 104 104 197 170 338 281 467 410 481 23 2 69 8 102 13 105 17 170 21
185 11 11 -7 1 -10 -35 -11 -53 -2 -60 -2 -145 -14 -30 -4 -63 -8 -72 -7 -10
0 -20 -3 -23 -8 -3 -4 -14 -6 -24 -3 -22 6 -89 -51 -111 -94 -17 -33 -50 -79
-50 -69 0 4 8 19 17 34 12 20 13 23 1 12 -32 -32 -137 -210 -132 -224 3 -8 1
-17 -5 -21 -7 -4 -8 0 -4 11 4 11 2 15 -4 11 -10 -7 -74 -132 -95 -186 -17
-46 2 -15 42 68 50 103 61 106 14 4 -20 -43 -38 -84 -41 -90 -3 -7 -11 -13
-17 -13 -7 0 -18 -16 -25 -35 -7 -19 -15 -33 -19 -31 -4 2 -8 -11 -9 -30 -1
-23 3 -34 13 -35 8 -1 20 -2 27 -3 6 -1 11 6 9 15 -2 13 19 18 132 29 74 6
139 9 145 6 5 -4 12 -2 15 3 9 14 116 12 116 -2 0 -9 2 -9 8 0 9 14 152 15
152 2 0 -5 5 -9 11 -9 5 0 7 5 4 10 -4 6 5 10 20 10 15 0 24 -4 20 -10 -3 -5
0 -10 9 -10 8 0 17 6 19 13 4 9 8 8 16 -3 10 -13 12 -13 22 0 8 11 12 12 16 3
2 -7 11 -13 18 -13 7 0 15 6 18 13 3 9 8 9 17 1 15 -15 52 -6 43 10 -4 6 1 5
10 -3 10 -8 44 -15 79 -16 34 0 56 1 50 3 -7 2 -12 8 -12 14 0 6 9 3 21 -8 17
-15 22 -16 29 -4 7 11 12 12 21 3 9 -9 15 -8 26 3 20 19 34 18 27 -3 -5 -17
-5 -17 6 0 10 16 37 26 27 10 -7 -11 375 -10 391 0 7 5 12 4 12 -3 0 -6 5 -8
11 -4 6 3 15 0 20 -7 6 -10 9 -10 9 -2 0 9 31 12 118 12 64 0 134 2 154 5 30
5 36 3 32 -9 -4 -8 -1 -15 5 -15 6 0 10 5 8 11 -1 6 4 14 11 16 6 3 12 0 12
-6 0 -8 7 -7 21 1 17 11 22 10 35 -6 8 -11 14 -14 14 -7 0 9 16 12 53 10 29
-1 59 1 65 5 7 4 17 4 23 0 7 -4 49 -6 95 -5 64 2 84 -1 84 -11 0 -11 2 -11 9
0 9 15 67 10 84 -7 6 -6 27 -10 47 -10 l35 2 -35 7 c-31 7 -29 7 20 8 30 0 47
-2 38 -6 -9 -4 45 -8 120 -9 138 -3 277 -18 202 -23 l-35 -2 44 -10 c70 -16
71 -3 13 116 -28 58 -74 144 -102 191 -28 48 -47 91 -44 97 4 6 3 8 -2 5 -6
-3 -16 3 -23 15 -7 11 -8 17 -2 14 7 -4 8 -1 5 8 -3 9 -10 14 -14 11 -5 -3
-12 0 -16 6 -4 8 -3 9 4 5 18 -11 15 -1 -12 39 -44 64 -99 126 -110 122 -6 -2
-30 13 -53 33 -36 31 -46 36 -80 31 -37 -5 -38 -5 -8 -11 47 -8 89 -35 134
-86 37 -43 54 -73 32 -60 -4 3 -75 17 -156 31 -264 45 -436 57 -890 60 -544 3
-819 -16 -1103 -76 -52 -11 -96 -18 -98 -16 -3 2 9 16 26 31 17 14 26 26 20
26 -19 0 23 49 58 65 18 9 52 19 75 21 141 18 323 31 467 35 253 6 1091 4
1220 -3 69 -4 101 -3 80 2 -75 18 -1115 34 -1387 20 -118 -5 -142 3 -46 15
175 23 944 26 1228 4z m3460 11 c4 -6 -7 -10 -25 -10 -17 0 -40 -5 -51 -10
-16 -9 -19 -7 -19 10 0 17 6 20 44 20 25 0 48 -4 51 -10z m1400 -10 c-3 -5
-11 -10 -16 -10 -6 0 -7 5 -4 10 3 6 11 10 16 10 6 0 7 -4 4 -10z m-10349 -30
c57 0 64 -2 64 -20 0 -18 -5 -20 -52 -14 -29 3 -84 9 -122 12 -46 5 -71 12
-74 21 -4 12 7 13 58 8 35 -4 92 -7 126 -7z m9611 -22 c-3 -7 -5 -2 -5 12 0
14 2 19 5 13 2 -7 2 -19 0 -25z m733 -16 c0 -21 -2 -24 -10 -12 -13 20 -13 53
0 45 6 -3 10 -18 10 -33z m-10057 12 c47 -5 57 -9 57 -25 0 -27 -4 -34 -15
-30 -11 4 -193 30 -211 31 -7 0 -14 9 -17 21 -6 23 -15 23 186 3z m9597 6 c0
-5 -2 -10 -4 -10 -3 0 -8 5 -11 10 -3 6 -1 10 4 10 6 0 11 -4 11 -10z m-540
-20 c-20 -13 -53 -13 -45 0 3 6 18 10 33 10 21 0 24 -2 12 -10z m-712 -7 c-10
-2 -26 -2 -35 0 -10 3 -2 5 17 5 19 0 27 -2 18 -5z m753 -25 c1 -7 1 -19 0
-27 -2 -7 2 -10 8 -6 6 3 11 4 11 1 0 -2 3 -12 7 -21 5 -15 3 -16 -14 -7 -11
6 -23 9 -26 6 -3 -3 -5 11 -4 30 1 33 15 52 18 24z m-9335 -15 c30 -11 13 -26
-23 -19 -21 3 -77 6 -125 6 -75 0 -88 2 -88 16 0 15 12 16 111 10 61 -4 117
-10 125 -13z m121 -12 c164 -32 173 -34 173 -49 0 -10 -6 -13 -22 -8 -37 11
-161 35 -192 38 -16 2 -31 9 -34 16 -4 14 11 15 75 3z m5856 -65 c31 -44 4
-22 -34 27 -23 28 -26 36 -10 22 13 -11 33 -33 44 -49z m2357 54 c-13 -9 -13
-11 0 -20 8 -5 20 -10 26 -10 12 0 28 -185 18 -202 -4 -5 -15 -8 -25 -5 -11 3
-19 2 -19 -3 0 -11 -43 -21 -52 -12 -4 4 -8 54 -9 111 -1 91 1 106 17 118 10
7 14 13 10 13 -4 0 -4 5 -1 10 3 6 16 10 28 10 18 0 19 -2 7 -10z m967 -17 c2
-6 -3 -13 -12 -16 -10 -5 -15 0 -15 14 0 21 21 22 27 2z m-863 -35 c17 -64 -3
-162 -30 -145 -5 3 -10 42 -12 86 -3 74 -1 81 16 81 12 0 22 -9 26 -22z m-302
-204 c11 -7 28 -76 22 -86 -3 -5 -12 -4 -20 3 -11 9 -14 7 -14 -10 0 -12 -8
-25 -17 -28 -10 -4 -24 -13 -31 -20 -18 -18 -43 -17 -36 2 9 22 -14 18 -28 -5
-15 -24 -43 -27 -34 -4 5 12 1 14 -17 8 -22 -7 -22 -6 -3 15 14 15 26 19 45
15 20 -4 23 -3 11 5 -8 6 -28 11 -43 11 -16 0 -35 7 -43 15 -13 13 -13 18 1
44 23 46 41 52 125 45 41 -3 78 -8 82 -10z m-6242 -80 c0 -8 -4 -14 -10 -14
-5 0 -10 9 -10 21 0 11 5 17 10 14 6 -3 10 -13 10 -21z m-1882 -21 l-3 -38
-125 -5 c-69 -3 -131 -9 -139 -14 -10 -6 -12 -5 -9 5 11 34 156 87 241 88 38
1 38 1 35 -36z m97 9 c43 -15 50 -21 53 -45 3 -24 0 -28 -15 -24 -10 3 -37 9
-60 12 -41 6 -43 8 -43 41 0 39 -2 38 65 16z m8230 -32 c-3 -5 -18 -10 -33
-10 -21 0 -24 2 -12 10 20 13 53 13 45 0z m60 0 c-3 -5 -11 -10 -16 -10 -6 0
-7 5 -4 10 3 6 11 10 16 10 6 0 7 -4 4 -10z m-185 -10 c0 -5 -7 -10 -15 -10
-8 0 -15 5 -15 10 0 6 7 10 15 10 8 0 15 -4 15 -10z m-6516 -16 c22 -8 10 -24
-19 -24 -29 0 -42 17 -18 23 10 3 19 5 20 6 1 0 8 -2 17 -5z m6402 -10 c-4
-12 -2 -15 9 -10 20 7 15 -11 -12 -41 -12 -14 -27 -41 -34 -61 -6 -21 -20 -45
-31 -55 -12 -12 -17 -26 -13 -38 4 -10 2 -19 -4 -19 -6 0 -13 12 -16 28 -3 15
-10 41 -14 57 l-9 30 -7 -33 c-9 -37 -22 -49 -38 -33 -6 6 -18 11 -26 11 -12
0 -12 -2 0 -17 23 -29 53 -93 46 -99 -8 -9 -32 11 -59 48 -20 28 -20 31 -4 82
24 74 83 127 159 140 20 4 37 11 37 16 0 6 5 10 11 10 6 0 8 -7 5 -16z m642 7
c16 -10 0 -25 -35 -33 -16 -4 -22 0 -26 18 -4 20 0 24 22 24 14 0 32 -4 39 -9z
m-51 -82 c-11 -29 -12 -29 -15 -9 -3 18 10 38 25 40 1 0 -4 -14 -10 -31z m813
1 c-8 -5 -24 -10 -35 -10 -17 0 -17 2 -5 10 8 5 24 10 35 10 17 0 17 -2 5 -10z
m-2995 -10 c3 -5 19 -10 34 -10 16 0 33 -6 39 -12 8 -10 0 -14 -34 -16 -36 -2
-43 0 -38 13 4 11 0 15 -16 15 -11 0 -18 5 -15 10 3 6 10 10 15 10 5 0 12 -4
15 -10z m-465 -10 c8 -5 11 -10 5 -10 -5 0 -17 5 -25 10 -8 5 -10 10 -5 10 6
0 17 -5 25 -10z m643 -17 c-7 -2 -19 -2 -25 0 -7 3 -2 5 12 5 14 0 19 -2 13
-5z m1657 3 c0 -9 -30 -14 -35 -6 -4 6 3 10 14 10 12 0 21 -2 21 -4z m260 -37
c-24 -7 -10 -14 19 -9 13 1 13 -1 2 -14 -11 -12 -17 -14 -27 -5 -10 8 -14 8
-14 0 0 -6 -4 -11 -9 -11 -7 0 -8 46 -2 56 1 1 13 -1 29 -4 l27 -6 -25 -7z
m-7080 -4 c14 -17 50 -20 50 -5 0 15 17 12 35 -6 21 -22 11 -30 -47 -37 -52
-7 -78 8 -78 44 0 23 23 25 40 4z m6927 -17 c-3 -7 -5 -2 -5 12 0 14 2 19 5
13 2 -7 2 -19 0 -25z m-8187 12 c-36 -12 -70 -12 -70 0 0 6 21 10 48 9 38 -1
42 -2 22 -9z m8106 -22 c0 -7 -10 -23 -22 -34 l-23 -22 1 22 c2 25 16 46 33
46 6 0 11 -6 11 -12z m-8656 -59 c0 -16 -7 -19 -45 -19 -37 0 -45 3 -45 18 0
15 8 19 45 20 38 0 45 -3 45 -19z m188 11 c84 0 102 -3 102 -15 0 -13 -21 -15
-125 -15 -121 0 -125 1 -125 21 0 17 4 20 23 15 12 -3 68 -6 125 -6z m400 -12
c-3 -22 -7 -23 -130 -26 l-128 -3 0 26 0 25 131 0 c130 0 130 0 127 -22z
m8102 12 c0 -5 -4 -10 -9 -10 -5 0 -16 -3 -25 -6 -11 -4 -16 -1 -16 10 0 10 9
16 25 16 14 0 25 -4 25 -10z m181 -10 c10 0 19 -5 19 -11 0 -6 -7 -8 -16 -5
-9 3 -20 6 -25 6 -5 0 -9 8 -8 18 0 10 3 12 6 5 2 -7 13 -13 24 -13z m-790
-61 c-16 -67 -14 -119 4 -119 8 0 15 -4 15 -10 0 -19 -35 -10 -49 13 -21 33
-15 117 11 144 12 13 23 21 25 19 2 -2 -1 -23 -6 -47z m568 37 c7 -8 26 -18
42 -21 19 -4 29 -13 29 -25 0 -10 3 -20 8 -23 4 -2 1 -2 -5 -1 -7 2 -13 -1
-13 -6 0 -6 -7 -10 -16 -10 -14 0 -14 3 -4 15 21 25 -52 20 -75 -5 -10 -11
-29 -19 -44 -19 l-26 2 25 4 c34 6 39 13 41 53 4 53 15 64 38 36z m333 -21
c87 -11 63 -25 -41 -25 -78 0 -101 3 -101 13 0 23 12 28 54 23 23 -3 62 -8 88
-11z m-6444 -27 c4 -19 -6 -22 -32 -12 -24 9 -19 31 6 30 13 -1 24 -9 26 -18z
m5488 -16 c-5 -9 -25 -136 -32 -207 -6 -62 -7 -66 -18 -62 -16 5 -19 114 -6
167 11 42 46 110 56 110 3 0 3 -4 0 -8z m358 -38 c2 -10 9 -20 16 -22 7 -3 10
0 7 5 -10 17 33 7 51 -11 16 -16 13 -17 -63 -16 -44 1 -95 5 -114 8 l-34 5 29
15 c16 9 43 18 59 22 19 4 29 12 27 21 -3 10 0 11 8 3 6 -6 13 -20 14 -30z
m-6142 -6 c-9 -9 -12 -7 -12 12 0 19 3 21 12 12 9 -9 9 -15 0 -24z m6245 -4
c-3 -3 -12 -4 -19 -1 -8 3 -5 6 6 6 11 1 17 -2 13 -5z m13 -54 c99 -6 94 -7
-77 -8 -117 -1 -183 2 -183 8 0 11 98 11 260 0z m-370 -10 c0 -5 -4 -10 -10
-10 -5 0 -10 5 -10 10 0 6 5 10 10 10 6 0 10 -4 10 -10z m160 -14 c0 -3 -4 -8
-10 -11 -5 -3 -10 -1 -10 4 0 6 5 11 10 11 6 0 10 -2 10 -4z m-387 -213 c-12
-98 -23 -202 -23 -232 0 -58 -8 -66 -12 -14 -1 18 -6 29 -10 27 -5 -3 -5 -10
-2 -16 5 -7 -2 -9 -20 -4 -18 4 -26 2 -27 -6 -1 -26 -10 -62 -16 -67 -12 -12
10 168 32 254 19 74 86 235 98 235 2 0 -7 -80 -20 -177z m1787 68 c0 -6 -4
-13 -10 -16 -5 -3 -10 1 -10 9 0 9 5 16 10 16 6 0 10 -4 10 -9z m-5872 -32
c19 -4 36 -10 40 -13 9 -10 -60 6 -93 20 -23 11 -24 12 -5 7 14 -3 40 -9 58
-14z m2722 -4 c0 -14 -3 -25 -7 -26 -126 -12 -160 -13 -156 -6 3 5 -3 7 -13 4
-11 -3 -37 -8 -59 -11 l-40 -6 45 16 c45 15 194 51 218 53 6 1 12 -10 12 -24z
m2844 -4 c23 -43 108 -51 103 -9 -3 26 21 36 29 11 3 -10 10 -26 14 -35 11
-21 -16 -32 -53 -23 -14 4 -28 2 -31 -4 -4 -6 -30 -11 -57 -11 -35 0 -51 -4
-55 -15 -5 -11 -11 -12 -25 -5 -10 6 -23 9 -30 8 -6 -2 -13 7 -15 19 -3 16 0
21 10 17 8 -3 17 -1 21 5 3 6 15 11 26 11 14 0 19 7 19 30 0 39 24 40 44 1z
m-1404 9 c14 -8 17 -18 13 -49 -3 -23 -1 -41 6 -45 15 -9 14 -27 -1 -23 -11 2
-22 -40 -32 -126 -3 -22 -9 -44 -15 -50 -5 -7 -12 -25 -14 -42 -8 -42 2 250 9
303 7 46 7 46 34 32z m1670 -31 c0 -10 6 -20 13 -20 6 -1 17 -2 22 -4 6 -1 18
-3 28 -3 9 -1 17 -9 17 -17 0 -15 -10 -19 -42 -16 -9 1 -19 -3 -23 -9 -8 -13
-62 -13 -70 0 -9 14 34 102 46 94 5 -3 9 -14 9 -25z m-6317 6 c4 -8 2 -17 -3
-20 -6 -4 -10 3 -10 14 0 25 6 27 13 6z m6619 -27 c9 1 19 -2 23 -8 3 -5 15
-10 26 -10 11 0 18 -4 15 -8 -3 -5 -18 -7 -34 -4 -18 2 -33 -2 -41 -12 -10
-12 -31 -16 -77 -16 -61 0 -64 1 -64 25 0 22 4 24 36 21 50 -5 74 3 74 23 0
28 14 35 21 9 3 -14 12 -22 21 -20z m-3039 -4 c-4 -10 -9 -12 -15 -6 -12 12
-1 35 12 27 5 -3 6 -13 3 -21z m-2916 -10 c-3 -3 -12 -4 -19 -1 -8 3 -5 6 6 6
11 1 17 -2 13 -5z m50 0 c-3 -3 -12 -4 -19 -1 -8 3 -5 6 6 6 11 1 17 -2 13 -5z
m5966 -41 c-7 -2 -21 -2 -30 0 -10 3 -4 5 12 5 17 0 24 -2 18 -5z m154 -9 c-3
-3 -12 -4 -19 -1 -8 3 -5 6 6 6 11 1 17 -2 13 -5z m-4937 -55 c80 -42 107 -72
92 -101 l-11 -23 0 23 c-1 12 -5 22 -11 22 -5 0 -10 6 -10 13 0 16 -35 38 -52
33 -7 -3 -39 -7 -71 -10 -76 -8 -116 -46 -108 -105 2 -7 -2 -10 -8 -6 -22 13
-11 55 24 94 34 37 36 38 100 37 36 -1 65 2 65 5 0 8 -74 36 -110 42 -20 3
-18 5 9 6 20 0 56 -11 91 -30z m-143 15 c-3 -3 -12 -4 -19 -1 -8 3 -5 6 6 6
11 1 17 -2 13 -5z m-96 -43 c-29 -28 -41 -61 -22 -61 5 0 7 -10 3 -22 l-5 -21
-18 22 c-22 27 -15 46 32 85 41 35 49 33 10 -3z m3389 9 c24 -15 -2 -32 -35
-24 -26 7 -27 8 -10 20 22 16 25 17 45 4z m50 6 c0 -3 -4 -8 -10 -11 -5 -3
-10 -1 -10 4 0 6 5 11 10 11 6 0 10 -2 10 -4z m-4280 -117 c26 -50 22 -62 -4
-14 -10 19 -31 39 -45 44 l-26 9 27 1 c23 1 31 -7 48 -40z m49 -44 l0 -20 -9
20 c-5 11 -9 29 -9 40 l0 20 9 -20 c5 -11 9 -29 9 -40z m1105 32 c-5 -15 -92
-53 -139 -62 -16 -2 -46 -2 -65 2 -30 7 -23 8 41 13 61 5 85 11 115 32 44 30
56 34 48 15z m1481 -17 c-7 13 -6 13 7 2 25 -20 30 -59 13 -92 -8 -16 -15 -38
-15 -50 0 -19 -6 -20 -139 -20 -77 0 -146 3 -155 6 -17 7 -22 34 -6 34 6 0 10
7 10 15 0 8 7 15 16 15 11 0 14 6 8 22 -6 20 -5 21 9 10 10 -9 17 -10 22 -2 3
5 17 10 31 10 14 0 22 4 19 10 -3 6 1 10 9 10 9 0 16 4 16 9 0 4 13 7 30 5 16
-2 32 1 35 6 4 6 10 8 15 5 4 -3 19 -1 32 4 15 6 28 5 37 -3 12 -9 13 -8 6 4z
m-1726 -26 c10 -9 -35 -3 -49 6 -11 8 -7 9 15 4 17 -4 32 -8 34 -10z m-818
-66 c8 -15 8 -18 0 -14 -6 4 -16 16 -22 28 -8 15 -8 18 0 14 6 -4 16 -16 22
-28z m3809 12 c0 -5 -9 -10 -21 -10 -11 0 -17 5 -14 10 3 6 13 10 21 10 8 0
14 -4 14 -10z m-1069 -145 l-9 -60 -1 56 c0 31 2 78 7 105 l7 49 3 -45 c1 -25
-2 -72 -7 -105z m-2730 73 c31 -62 67 -107 103 -129 17 -10 26 -19 19 -19 -30
0 -123 109 -146 173 -12 32 3 17 24 -25z m39 -28 c6 -11 8 -20 6 -20 -3 0 -10
9 -16 20 -6 11 -8 20 -6 20 3 0 10 -9 16 -20z m73 -89 c-2 -3 -18 10 -36 29
l-32 34 36 -30 c20 -16 34 -31 32 -33z m44 -7 c-3 -3 -12 -4 -19 -1 -8 3 -5 6
6 6 11 1 17 -2 13 -5z m101 -11 c-16 -2 -40 -2 -55 0 -16 2 -3 4 27 4 30 0 43
-2 28 -4z m1345 0 c-7 -2 -19 -2 -25 0 -7 3 -2 5 12 5 14 0 19 -2 13 -5z
m1562 -3 c3 -5 1 -10 -4 -10 -6 0 -11 5 -11 10 0 6 2 10 4 10 3 0 8 -4 11 -10z
m-2593 -7 c-51 -2 -132 -2 -180 0 -48 1 -6 3 93 3 99 0 138 -2 87 -3z m850 0
c-40 -2 -103 -2 -140 0 -37 2 -4 3 73 3 77 0 107 -2 67 -3z m-369 -10 c-68 -2
-178 -2 -245 0 -68 1 -13 3 122 3 135 0 190 -2 123 -3z m560 -10 c-7 -2 -21
-2 -30 0 -10 3 -4 5 12 5 17 0 24 -2 18 -5z m1297 -34 c0 -6 -4 -7 -10 -4 -5
3 -10 11 -10 16 0 6 5 7 10 4 6 -3 10 -11 10 -16z m2268 13 c47 -1 82 -6 82
-12 0 -5 -9 -10 -19 -10 -11 0 -23 -4 -26 -10 -3 -6 -52 -10 -111 -10 -94 0
-104 2 -104 18 0 27 6 30 53 28 23 -1 79 -3 125 -4z m-5303 -48 c199 -9 205
-12 124 -56 -35 -19 -112 -64 -172 -101 l-107 -66 -73 5 c-62 3 -356 45 -424
60 -27 5 -31 34 -5 34 13 0 14 -2 3 -9 -9 -6 2 -12 38 -20 64 -14 92 -14 73
-2 -9 5 -4 8 16 7 23 -1 28 -4 20 -13 -8 -10 -5 -13 9 -13 23 0 119 68 193
138 54 51 56 52 105 47 28 -2 118 -7 200 -11z m2279 -2 c3 -5 -1 -9 -9 -9 -8
0 -12 4 -9 9 3 4 7 8 9 8 2 0 6 -4 9 -8z m-109 -22 c-4 -6 -14 -9 -22 -5 -10
3 -5 -9 12 -31 28 -36 28 -37 6 -31 l-23 6 20 -20 c12 -10 25 -19 30 -19 13 0
36 -29 29 -36 -6 -6 -69 24 -78 38 -3 5 -11 2 -18 -6 -11 -13 -7 -18 28 -33
23 -10 41 -21 41 -25 0 -4 -23 4 -51 18 -28 14 -52 24 -55 22 -2 -3 21 -18 51
-34 31 -16 52 -30 46 -32 -13 -4 -55 18 -154 82 -45 29 -101 63 -125 75 -23
12 -40 26 -37 30 3 5 73 10 156 10 108 1 149 -1 144 -9z m165 -25 c13 -14 21
-25 18 -25 -2 0 -15 11 -28 25 -13 14 -21 25 -18 25 2 0 15 -11 28 -25z m935
-26 c43 -1 90 -5 104 -9 14 -4 -89 -10 -232 -11 -141 -2 -257 -1 -257 2 0 10
59 17 175 18 60 1 111 4 114 6 2 3 7 2 11 0 4 -3 42 -5 85 -6z m-835 -56 c0
-8 -38 17 -51 33 -9 11 -2 9 19 -6 17 -13 32 -25 32 -27z m1263 40 c-7 -2 -21
-2 -30 0 -10 3 -4 5 12 5 17 0 24 -2 18 -5z m-6222 -36 c-10 -9 -11 -8 -5 6 3
10 9 15 12 12 3 -3 0 -11 -7 -18z m5216 -3 c-3 -3 -12 -4 -19 -1 -8 3 -5 6 6
6 11 1 17 -2 13 -5z m-3284 -11 c-7 -2 -19 -2 -25 0 -7 3 -2 5 12 5 14 0 19
-2 13 -5z m3093 -45 c-11 -3 -30 -6 -41 -6 -16 0 -15 2 5 8 14 4 20 8 14 9 -7
1 -14 8 -17 16 -5 11 0 11 27 -3 32 -16 32 -17 12 -24z m214 33 c0 -5 -26 -12
-57 -16 -32 -3 -71 -8 -87 -10 -16 -3 -26 -2 -23 2 4 4 42 12 85 19 42 6 78
12 80 13 1 0 2 -3 2 -8z m-3265 -45 c77 -14 185 -30 240 -37 55 -6 105 -16
110 -21 6 -6 1 -8 -15 -4 -14 3 -74 10 -135 16 -188 18 -315 41 -338 62 -12
11 -17 17 -12 15 6 -3 73 -17 150 -31z m3295 4 c-19 -12 -99 -25 -355 -57
l-210 -27 -1165 3 c-641 2 -1173 7 -1182 10 -9 3 524 6 1185 6 1194 0 1203 0
1387 23 102 13 212 29 245 36 74 17 116 20 95 6z m-337 -7 c-7 -2 -21 -2 -30
0 -10 3 -4 5 12 5 17 0 24 -2 18 -5z m-3548 -289 c-16 -14 -55 -42 -85 -63
-30 -21 -85 -58 -121 -84 -75 -53 -94 -59 -58 -20 24 26 24 26 -16 -3 -22 -16
-64 -48 -93 -71 -49 -40 -112 -79 -112 -69 0 5 218 168 269 200 24 15 40 23
37 17 -15 -24 13 -8 74 41 65 52 107 78 125 78 6 -1 -3 -12 -20 -26z m4190
-18 c11 -8 16 -15 10 -15 -5 0 -23 11 -40 25 -31 26 -6 18 30 -10z m-1988 -2
c-3 -3 -12 -4 -19 -1 -8 3 -5 6 6 6 11 1 17 -2 13 -5z m68 -3 c3 -5 -8 -9 -25
-9 -16 1 -30 5 -30 10 0 11 47 10 55 -1z m198 -3 c15 -7 25 -17 24 -23 -4 -12
-57 -15 -57 -3 0 5 -9 4 -20 -2 -12 -6 -30 -8 -41 -5 -19 7 -20 8 -3 26 20 22
58 25 97 7z m-2543 -78 c-53 -47 -79 -63 -64 -38 4 7 3 8 -5 4 -6 -4 -9 -11
-6 -16 3 -5 -5 -14 -17 -21 -22 -12 -86 -58 -229 -167 -38 -29 -74 -50 -79
-47 -8 5 -7 11 1 21 15 19 4 18 -27 -3 -25 -16 -26 -16 -22 3 2 10 8 19 15 19
13 0 85 51 155 110 29 25 58 43 66 40 7 -2 44 17 83 43 38 26 82 54 97 62 15
8 38 23 51 32 47 33 35 6 -19 -42z m4365 42 c-3 -3 -11 0 -18 7 -9 10 -8 11 6
5 10 -3 15 -9 12 -12z m-4475 4 c0 -6 -291 -220 -335 -246 -22 -14 -45 -25
-52 -26 -20 -3 -15 14 7 26 11 6 18 15 16 19 -3 4 9 18 27 30 l32 22 -28 -25
c-32 -30 -22 -35 14 -8 13 11 74 53 136 94 61 42 109 79 105 82 -3 4 0 5 8 2
8 -3 26 3 40 14 26 20 30 23 30 16z m2397 -82 c-3 -3 -12 -4 -19 -1 -8 3 -5 6
6 6 11 1 17 -2 13 -5z m-92 -24 c8 -13 -5 -13 -25 0 -13 8 -13 10 2 10 9 0 20
-4 23 -10z m225 1 c0 -5 -43 -9 -96 -10 -57 0 -93 3 -89 8 7 12 185 13 185 2z
m-460 -21 c0 -5 -10 -10 -22 -10 -19 0 -20 2 -8 10 19 13 30 13 30 0z m370
-20 c48 -1 86 -8 105 -18 l30 -17 -40 -6 c-36 -5 -37 -6 -10 -8 17 -2 24 -5
15 -8 -8 -3 -22 -12 -31 -20 -12 -10 -51 -15 -150 -16 -143 -2 -186 7 -134 29
26 12 27 13 8 14 -15 0 -23 6 -23 18 0 22 48 38 110 35 25 -1 79 -3 120 -3z
m2092 -117 c18 -16 18 -18 2 -23 -10 -4 -36 -3 -58 1 -23 4 -45 5 -49 2 -5 -3
-7 3 -5 12 1 10 11 19 21 21 11 1 21 5 24 7 9 9 45 -2 65 -20z m-2374 -22 c50
11 282 11 282 0 0 -5 9 -7 19 -4 11 3 28 0 38 -6 10 -6 13 -11 5 -11 -7 0 -11
-4 -8 -9 11 -17 -25 -20 -167 -16 -156 4 -197 9 -242 27 l-29 12 24 7 c14 3
29 3 33 -1 5 -4 25 -4 45 1z m2450 -8 c2 -8 -6 -13 -22 -13 -17 0 -26 5 -26
16 0 19 41 16 48 -3z m-5702 -80 c-34 -4 -36 -6 -20 -17 17 -13 16 -14 -7 -21
-13 -4 -40 -18 -59 -30 -19 -12 -65 -34 -103 -50 -37 -15 -65 -30 -63 -32 2
-2 21 3 42 11 l39 16 -25 -20 c-14 -11 -30 -24 -36 -29 -14 -12 -104 -20 -104
-10 0 4 18 20 41 36 69 48 84 61 78 68 -6 6 -86 -37 -143 -78 -16 -11 -45 -22
-65 -24 l-36 -3 50 31 c78 50 178 99 201 99 12 0 27 6 33 14 10 12 5 13 -31 9
-24 -3 -51 -10 -60 -15 -12 -6 -18 -5 -18 2 0 7 -20 10 -55 8 -30 -2 -55 -6
-55 -9 0 -4 -27 -21 -61 -39 -33 -17 -85 -47 -114 -66 -61 -38 -65 -40 -65
-20 0 16 146 100 193 111 28 8 36 20 15 28 -26 8 258 17 287 8 27 -8 28 -9 10
-16 -11 -3 -33 -13 -50 -20 -29 -13 -29 -14 -5 -14 30 0 116 22 126 32 4 4 -6
8 -22 8 -28 2 -28 2 6 9 24 5 28 8 12 9 -13 0 -20 6 -17 11 3 6 32 9 63 8 45
-1 49 -2 18 -5z m5514 -13 c0 -4 -9 -6 -21 -3 -15 4 -17 8 -8 14 14 8 29 3 29
-11z m-3726 -52 c-17 -18 -46 -54 -65 -80 -19 -26 -41 -48 -51 -48 -27 0 -10
35 25 53 23 11 27 16 13 16 -29 1 52 89 83 90 l25 1 -30 -32z m3467 15 c11
-12 11 -17 2 -20 -8 -3 -2 -14 15 -28 l27 -24 -25 0 c-24 0 -90 49 -90 68 0 5
10 12 23 14 12 2 25 5 28 6 4 0 13 -6 20 -16z m-5781 3 c0 -2 -7 -7 -16 -10
-8 -3 -12 -2 -9 4 6 10 25 14 25 6z m1839 -23 c-12 -15 -12 -16 6 -10 20 7 20
7 0 -8 -11 -9 -25 -13 -33 -10 -7 2 -10 0 -7 -5 3 -6 1 -10 -4 -10 -19 0 -12
20 17 45 30 26 43 25 21 -2z m166 17 c-3 -5 -12 -10 -18 -10 -7 0 -6 4 3 10
19 12 23 12 15 0z m100 0 c-3 -5 -12 -10 -18 -10 -7 0 -6 4 3 10 19 12 23 12
15 0z m55 6 c0 -3 -4 -8 -10 -11 -5 -3 -10 -1 -10 4 0 6 5 11 10 11 6 0 10 -2
10 -4z m3517 -22 c24 -26 23 -47 -2 -38 -8 4 -12 10 -10 15 3 5 -6 11 -20 15
-25 6 -31 15 -18 27 12 12 25 7 50 -19z m-5527 -25 c-40 -22 -90 -53 -110 -69
-23 -18 -53 -30 -85 -35 l-50 -6 50 24 c28 13 88 47 135 76 47 28 96 51 110
51 19 0 6 -11 -50 -41z m1750 37 c0 -2 -7 -7 -16 -10 -8 -3 -12 -2 -9 4 6 10
25 14 25 6z m320 -5 c-14 -4 -25 -13 -25 -21 0 -9 -11 -16 -25 -17 -23 -2 -23
-2 -5 6 11 6 14 10 6 10 -30 2 12 31 43 30 29 -1 30 -1 6 -8z m2260 -1 c0 -5
-6 -10 -14 -10 -8 0 -18 5 -21 10 -3 6 3 10 14 10 12 0 21 -4 21 -10z m1070 0
c-8 -5 -19 -10 -25 -10 -5 0 -3 5 5 10 8 5 20 10 25 10 6 0 3 -5 -5 -10z m805
-10 c10 -11 16 -20 13 -20 -3 0 -15 9 -28 20 -13 11 -19 20 -13 20 5 0 18 -9
28 -20z m-315 -1 c13 -9 13 -10 -2 -6 -9 3 -18 1 -20 -5 -2 -6 -9 -3 -17 6
-12 14 -11 16 5 16 11 0 26 -5 34 -11z m231 -6 c13 -16 12 -17 -3 -4 -10 7
-18 15 -18 17 0 8 8 3 21 -13z m-5792 -26 c-20 -17 -52 -44 -70 -58 -49 -39
-30 -45 43 -14 101 42 108 43 76 9 -23 -25 -26 -38 -27 -96 0 -38 0 -77 0 -88
-1 -19 -8 -20 -160 -20 -121 0 -165 4 -187 15 -16 8 -22 15 -13 15 25 0 39 21
29 41 -7 11 -7 20 0 24 5 3 7 12 3 20 -4 11 -1 13 11 9 9 -3 16 -1 16 4 0 6 8
11 18 11 36 1 67 6 72 13 3 3 21 11 40 16 25 7 29 10 13 11 -39 2 -25 21 32
47 56 26 73 41 33 28 -13 -3 -20 -4 -17 0 5 5 105 43 119 45 3 1 -11 -14 -31
-32z m1201 19 c0 -2 -7 -7 -16 -10 -8 -3 -12 -2 -9 4 6 10 25 14 25 6z m4494
-5 c3 -5 -1 -11 -9 -15 -9 -3 -15 0 -15 9 0 16 16 20 24 6z m-4257 -39 c-39
-40 -47 -58 -21 -48 9 4 13 2 8 -5 -4 -8 1 -9 16 -4 20 6 21 4 19 -27 -1 -18
1 -61 5 -96 6 -43 4 -72 -4 -92 -10 -24 -10 -33 1 -46 15 -19 20 -93 9 -151
-5 -32 -4 -45 9 -58 15 -15 15 -17 -1 -29 -12 -8 -14 -16 -7 -23 13 -13 1 -43
-17 -43 -8 0 -14 -5 -14 -10 0 -7 -6 -7 -17 -1 -10 5 -21 8 -25 8 -4 -1 -17 6
-28 16 -15 12 -19 24 -14 42 4 15 1 32 -7 41 -7 9 -14 47 -16 87 -1 40 -4 110
-7 157 -3 59 -1 87 7 92 7 5 8 8 1 8 -6 0 -9 13 -6 30 2 16 -1 44 -7 62 -8 22
-8 34 -1 36 5 2 29 19 51 38 23 19 47 34 56 34 8 0 12 4 9 8 -2 4 5 9 16 9 18
2 16 -3 -15 -35z m4463 18 c0 -5 -2 -10 -4 -10 -3 0 -8 5 -11 10 -3 6 -1 10 4
10 6 0 11 -4 11 -10z m285 0 c8 -13 -15 -13 -35 0 -12 8 -11 10 7 10 12 0 25
-4 28 -10z m-5020 -10 c-3 -5 0 -10 7 -10 16 -1 -55 -38 -94 -50 -37 -11 -35
-7 9 22 79 50 88 54 78 38z m4075 0 c0 -5 -9 -10 -21 -10 -11 0 -17 5 -14 10
3 6 13 10 21 10 8 0 14 -4 14 -10z m-3955 -21 c-10 -15 7 -10 29 8 12 10 8 3
-8 -14 -15 -17 -26 -36 -22 -41 6 -9 -70 1 -80 11 -8 8 68 57 78 51 5 -3 6
-10 3 -15z m402 15 c-3 -3 -12 -4 -19 -1 -8 3 -5 6 6 6 11 1 17 -2 13 -5z
m3918 -12 c-3 -3 -11 0 -18 7 -9 10 -8 11 6 5 10 -3 15 -9 12 -12z m-4575 -7
c0 -8 -7 -15 -15 -15 -13 0 -14 3 -3 15 16 18 18 18 18 0z m510 8 c-1 -14 -30
-47 -36 -41 -8 8 14 48 26 48 6 0 10 -3 10 -7z m110 -18 c-7 -8 -17 -15 -23
-15 -6 0 -2 7 9 15 25 19 30 19 14 0z m3635 -5 c16 -18 16 -20 1 -26 -16 -6
-56 20 -56 38 0 16 37 8 55 -12z m91 -3 c4 -4 -2 -7 -14 -7 -11 0 -24 5 -27
10 -7 11 30 8 41 -3z m-4786 -7 c0 -13 -28 -25 -38 -16 -3 4 0 11 8 16 20 13
30 12 30 0z m557 -15 c0 -8 -6 -15 -14 -15 -17 0 -17 17 0 23 6 3 12 6 13 6 0
1 1 -6 1 -14z m2628 -108 c0 -26 -20 -25 -23 2 -3 16 1 22 10 19 7 -3 13 -12
13 -21z m-685 9 c0 -3 -4 -8 -10 -11 -5 -3 -10 -1 -10 4 0 6 5 11 10 11 6 0
10 -2 10 -4z m-3460 -66 c0 -5 -2 -10 -4 -10 -3 0 -8 5 -11 10 -3 6 -1 10 4
10 6 0 11 -4 11 -10z m5610 -10 c0 -5 -4 -10 -10 -10 -5 0 -10 5 -10 10 0 6 5
10 10 10 6 0 10 -4 10 -10z m-126 -76 c-18 -27 -34 -31 -34 -9 0 8 7 15 15 15
8 0 14 3 14 8 -3 16 2 23 11 17 6 -4 4 -16 -6 -31z m-3139 16 c-3 -5 -11 -10
-16 -10 -6 0 -7 5 -4 10 3 6 11 10 16 10 6 0 7 -4 4 -10z m3225 -5 c0 -8 -9
-15 -20 -15 -11 0 -20 7 -20 15 0 8 9 15 20 15 11 0 20 -7 20 -15z m-192 -17
c-3 -7 -12 -14 -21 -16 -12 -2 -15 1 -11 12 7 19 38 22 32 4z m62 -4 c0 -17
-22 -14 -28 4 -2 7 3 12 12 12 9 0 16 -7 16 -16z m-3052 -5 c-2 -6 -8 -10 -13
-10 -5 0 -11 4 -13 10 -2 6 4 11 13 11 9 0 15 -5 13 -11z m-62 -26 c-10 -10
-19 5 -10 18 6 11 8 11 12 0 2 -7 1 -15 -2 -18z m2898 1 c10 -26 7 -34 -14
-34 -15 0 -20 7 -20 25 0 28 24 34 34 9z m191 -24 c0 -25 -5 -36 -18 -38 -20
-4 -35 27 -18 37 6 4 9 15 5 25 -5 14 -3 17 12 14 14 -2 19 -12 19 -38z
m-3445 26 c0 -2 -7 -6 -15 -10 -8 -3 -15 -1 -15 4 0 6 7 10 15 10 8 0 15 -2
15 -4z m3346 -21 c17 -26 12 -45 -12 -45 -13 0 -34 37 -34 61 0 18 30 8 46
-16z m167 -8 c-2 -4 -3 -12 -3 -18 0 -17 -33 -5 -36 13 -1 13 4 17 19 14 12
-2 21 -6 20 -9z m-3038 -33 c1 -10 4 -25 8 -32 9 -13 1 -32 -13 -32 -18 0 -39
54 -28 73 12 22 33 17 33 -9z m1489 -35 c-8 -14 -21 -10 -28 7 -10 25 5 40 20
19 7 -10 11 -22 8 -26z m1414 -37 c2 -7 -2 -11 -10 -10 -7 2 -13 -5 -13 -16 0
-11 -7 -20 -17 -22 -12 -1 -16 6 -16 33 0 31 2 34 26 31 14 -2 27 -9 30 -16z
m-2701 -8 c6 -18 -6 -45 -23 -51 -13 -4 -37 45 -29 58 10 15 45 10 52 -7z
m-687 -4 c0 -5 -7 -10 -15 -10 -8 0 -15 5 -15 10 0 6 7 10 15 10 8 0 15 -4 15
-10z m530 -29 c0 -6 -4 -13 -10 -16 -5 -3 -10 1 -10 9 0 9 5 16 10 16 6 0 10
-4 10 -9z m1750 -56 c7 -8 10 -22 6 -30 -7 -20 -40 -19 -57 1 -11 14 -10 18 6
30 24 18 30 18 45 -1z m1000 -51 c0 -26 -17 -33 -26 -9 -8 20 3 48 16 40 5 -3
10 -17 10 -31z m-2521 12 c9 -10 8 -16 -4 -26 -19 -16 -41 1 -32 24 8 20 21
20 36 2z m388 -2 c-3 -3 -12 -4 -19 -1 -8 3 -5 6 6 6 11 1 17 -2 13 -5z m870
-31 c27 -6 57 -38 49 -52 -4 -6 -75 -9 -194 -7 -180 3 -187 4 -190 23 -4 30
41 42 168 43 57 0 106 3 109 6 3 2 12 2 20 -2 9 -4 26 -9 38 -11z m2380 -79
c-9 -9 -28 6 -21 18 4 6 10 6 17 -1 6 -6 8 -13 4 -17z m-1322 -66 c29 -13 32
-30 9 -52 -22 -23 -41 -20 -61 10 -16 25 -16 27 2 40 23 17 18 17 50 2z
m-1230 -76 c0 -18 -20 -15 -23 4 -3 10 1 15 10 12 7 -3 13 -10 13 -16z m705
-17 c-7 -9 -10 -19 -6 -22 4 -4 11 -1 15 6 6 8 11 9 15 3 9 -14 -34 -26 -47
-13 -11 11 7 41 25 41 6 0 5 -7 -2 -15z m298 3 c-6 -18 -28 -21 -28 -4 0 9 7
16 16 16 9 0 14 -5 12 -12z m42 -28 c0 -35 -36 -62 -46 -35 -9 22 12 65 31 65
10 0 15 -10 15 -30z m1290 -25 c18 -21 3 -55 -25 -55 -27 0 -36 16 -24 48 10
25 31 29 49 7z m-402 -130 c-3 -3 -9 2 -12 12 -6 14 -5 15 5 6 7 -7 10 -15 7
-18z m581 -62 c-4 -23 3 -32 18 -26 11 4 14 3 9 -5 -16 -27 -53 -6 -42 23 6
15 17 21 15 8z m-424 -104 c5 -14 1 -27 -9 -37 -10 -11 -16 -12 -16 -4 0 7 -5
12 -11 12 -5 0 -7 -5 -3 -12 4 -7 3 -8 -4 -4 -13 8 -16 48 -5 59 14 14 42 6
48 -14z m-3815 -159 c0 -5 -5 -10 -11 -10 -5 0 -7 5 -4 10 3 6 8 10 11 10 2 0
4 -4 4 -10z m336 -18 c19 -13 23 -39 8 -61 -26 -36 -74 -21 -74 24 0 36 37 57
66 37z m-20 -128 c18 7 34 -17 28 -41 -6 -23 -55 -48 -78 -40 -19 8 -17 77 3
100 15 18 16 18 25 -3 5 -11 15 -19 22 -16z m-336 15 c0 -5 5 -7 10 -4 6 3 10
-1 10 -11 0 -13 3 -14 15 -4 13 10 15 9 15 -9 0 -11 -5 -21 -11 -21 -8 0 -7
-6 2 -16 12 -15 11 -16 -11 -9 -33 9 -46 24 -54 58 -5 20 -3 27 9 27 8 0 15
-5 15 -11z m100 -59 c0 -5 -2 -10 -4 -10 -3 0 -8 5 -11 10 -3 6 -1 10 4 10 6
0 11 -4 11 -10z"/>
<path d="M9622 4516 c1 -15 6 -26 10 -26 12 0 10 38 -2 45 -6 4 -9 -5 -8 -19z"/>
<path d="M9369 4417 c-3 -83 -1 -117 7 -117 9 0 10 31 7 108 -6 146 -10 148
-14 9z"/>
<path d="M9488 4483 c-21 -2 -38 -8 -38 -14 0 -12 117 -12 125 1 3 6 0 10 -9
10 -8 0 -20 1 -28 3 -7 2 -30 2 -50 0z"/>
<path d="M10420 4460 c0 -5 5 -10 10 -10 6 0 10 5 10 10 0 6 -4 10 -10 10 -5
0 -10 -4 -10 -10z"/>
<path d="M9580 4409 c0 -5 5 -7 10 -4 6 3 10 8 10 11 0 2 -4 4 -10 4 -5 0 -10
-5 -10 -11z"/>
<path d="M9448 4323 c7 -3 16 -2 19 1 4 3 -2 6 -13 5 -11 0 -14 -3 -6 -6z"/>
<path d="M9503 4323 c9 -2 25 -2 35 0 9 3 1 5 -18 5 -19 0 -27 -2 -17 -5z"/>
<path d="M9923 4293 c9 -2 23 -2 30 0 6 3 -1 5 -18 5 -16 0 -22 -2 -12 -5z"/>
<path d="M9988 4293 c7 -3 16 -2 19 1 4 3 -2 6 -13 5 -11 0 -14 -3 -6 -6z"/>
<path d="M1751 5828 c-14 -7 -33 -27 -43 -44 -29 -50 -58 -181 -58 -263 0 -53
-3 -72 -10 -61 -7 11 -8 6 -4 -17 4 -20 2 -33 -4 -33 -16 0 -19 -31 -11 -95
32 -256 65 -386 105 -412 15 -9 38 -12 66 -9 23 2 48 5 53 5 6 1 -1 7 -15 14
-67 34 -127 248 -117 417 14 218 35 365 60 415 5 11 23 35 40 53 20 20 26 32
16 32 -7 0 -23 3 -34 5 -11 3 -31 0 -44 -7z"/>
<path d="M1829 5648 c-13 -47 -5 -210 11 -254 13 -33 40 -28 60 11 20 41 19
197 -3 248 -23 53 -52 51 -68 -5z"/>
<path d="M1893 5306 c-14 -6 -30 -32 -43 -68 -13 -36 -28 -59 -40 -63 -23 -7
-26 -28 -7 -47 8 -7 12 -18 10 -24 -5 -16 34 -47 51 -41 29 11 47 56 58 146
12 98 7 114 -29 97z"/>
<path d="M1630 4129 c0 -25 4 -38 10 -34 6 4 24 4 40 0 28 -6 30 -9 30 -56 l0
-49 -35 0 c-28 0 -38 5 -45 23 -6 14 -8 -27 -7 -123 l2 -145 45 4 c25 1 48 5
52 8 5 2 8 93 8 202 l0 198 -37 7 c-62 10 -63 9 -63 -35z"/>
<path d="M1676 3621 c-4 -6 -18 -11 -31 -11 -21 0 -24 -5 -30 -63 -11 -102 -2
-359 13 -382 11 -16 12 -16 8 -2 -5 15 -2 16 14 7 17 -9 20 -7 26 15 7 27 24
34 24 9 0 -8 5 -12 10 -9 6 3 10 15 10 25 0 13 9 22 28 26 59 13 62 15 62 44
0 28 1 29 68 35 37 3 82 8 100 11 l32 5 0 144 0 145 -47 0 c-27 0 -100 3 -164
7 -82 4 -118 2 -123 -6z"/>
<path d="M1600 2920 c0 -5 5 -10 11 -10 5 0 7 5 4 10 -3 6 -8 10 -11 10 -2 0
-4 -4 -4 -10z"/>
<path d="M3244 5258 c-7 -85 -7 -642 0 -713 2 -16 4 -38 5 -47 0 -10 5 -18 9
-18 19 0 24 842 6 860 -9 9 -14 -12 -20 -82z"/>
<path d="M3165 5209 c-9 -14 -2 -20 14 -10 8 6 9 11 3 15 -6 3 -14 1 -17 -5z"/>
<path d="M3671 4051 c-22 -14 -1 -19 109 -22 91 -4 105 -2 108 12 3 15 -10 17
-100 18 -57 0 -109 -3 -117 -8z"/>
<path d="M2942 3960 c0 -14 2 -19 5 -12 2 6 2 18 0 25 -3 6 -5 1 -5 -13z"/>
<path d="M8176 4833 c-6 -14 -5 -15 5 -6 7 7 10 15 7 18 -3 3 -9 -2 -12 -12z"/>
<path d="M7110 4016 c0 -2 8 -10 18 -17 15 -13 16 -12 3 4 -13 16 -21 21 -21
13z"/>
<path d="M7142 3728 c-8 -10 -6 -20 8 -38 17 -22 20 -23 20 -6 0 16 2 17 18 5
9 -7 6 0 -8 16 -14 17 -25 31 -26 33 -1 1 -6 -3 -12 -10z"/>
<path d="M7311 3542 c-6 -2 8 -19 31 -37 23 -19 44 -32 46 -30 8 7 -66 71 -77
67z"/>
<path d="M6590 3390 c8 -5 24 -9 35 -9 l20 0 -20 9 c-11 5 -27 9 -35 9 -13 1
-13 0 0 -9z"/>
<path d="M6658 3373 c7 -3 16 -2 19 1 4 3 -2 6 -13 5 -11 0 -14 -3 -6 -6z"/>
<path d="M7795 2920 c-3 -5 -1 -10 4 -10 6 0 11 5 11 10 0 6 -2 10 -4 10 -3 0
-8 -4 -11 -10z"/>
<path d="M5533 5660 c-125 -76 -42 -283 103 -255 19 3 50 20 69 36 66 58 66
150 0 208 -30 26 -44 31 -88 31 -34 0 -63 -7 -84 -20z"/>
<path d="M5401 5342 c-29 -104 76 -222 197 -222 95 0 182 85 182 178 0 50 -7
56 -39 33 -86 -59 -200 -53 -280 16 -22 18 -42 33 -45 33 -3 0 -10 -17 -15
-38z"/>
<path d="M5220 4866 c0 -9 5 -16 10 -16 6 0 10 4 10 9 0 6 -4 13 -10 16 -5 3
-10 -1 -10 -9z"/>
<path d="M5360 4901 c0 -15 6 -21 21 -21 14 0 19 5 17 17 -5 26 -38 29 -38 4z"/>
<path d="M5770 4885 c0 -8 4 -15 10 -15 5 0 7 7 4 15 -4 8 -8 15 -10 15 -2 0
-4 -7 -4 -15z"/>
<path d="M6360 4608 c0 -4 14 -8 30 -8 17 0 30 2 30 4 0 2 -13 6 -30 8 -16 3
-30 1 -30 -4z"/>
<path d="M6560 4576 c0 -2 8 -10 18 -17 15 -13 16 -12 3 4 -13 16 -21 21 -21
13z"/>
<path d="M5255 4560 c-3 -5 -1 -10 4 -10 6 0 11 5 11 10 0 6 -2 10 -4 10 -3 0
-8 -4 -11 -10z"/>
<path d="M5284 4558 c-3 -4 88 -8 202 -8 114 0 205 3 201 6 -9 9 -398 11 -403
2z"/>
<path d="M5700 4560 c0 -5 5 -10 11 -10 5 0 7 5 4 10 -3 6 -8 10 -11 10 -2 0
-4 -4 -4 -10z"/>
<path d="M4998 4553 c7 -3 16 -2 19 1 4 3 -2 6 -13 5 -11 0 -14 -3 -6 -6z"/>
<path d="M5763 4553 c9 -2 25 -2 35 0 9 3 1 5 -18 5 -19 0 -27 -2 -17 -5z"/>
<path d="M5828 4553 c6 -2 18 -2 25 0 6 3 1 5 -13 5 -14 0 -19 -2 -12 -5z"/>
<path d="M5878 4553 c7 -3 16 -2 19 1 4 3 -2 6 -13 5 -11 0 -14 -3 -6 -6z"/>
<path d="M5918 4553 c6 -2 18 -2 25 0 6 3 1 5 -13 5 -14 0 -19 -2 -12 -5z"/>
<path d="M5978 4553 c6 -2 18 -2 25 0 6 3 1 5 -13 5 -14 0 -19 -2 -12 -5z"/>
<path d="M6940 4000 c6 -11 13 -20 16 -20 2 0 0 9 -6 20 -6 11 -13 20 -16 20
-2 0 0 -9 6 -20z"/>
<path d="M5233 3953 c9 -2 23 -2 30 0 6 3 -1 5 -18 5 -16 0 -22 -2 -12 -5z"/>
<path d="M4998 3913 c7 -3 16 -2 19 1 4 3 -2 6 -13 5 -11 0 -14 -3 -6 -6z"/>
<path d="M5378 3913 c7 -3 16 -2 19 1 4 3 -2 6 -13 5 -11 0 -14 -3 -6 -6z"/>
<path d="M5515 3910 c3 -5 14 -10 23 -10 15 0 15 2 2 10 -20 13 -33 13 -25 0z"/>
<path d="M5661 3906 c-13 -7 -20 -15 -15 -18 5 -3 18 3 28 13 23 22 20 23 -13
5z"/>
<path d="M5771 3915 c8 -7 78 -9 85 -2 4 4 -14 7 -41 7 -27 0 -46 -2 -44 -5z"/>
<path d="M5870 3909 c0 -5 9 -9 20 -9 11 0 20 2 20 4 0 2 -9 6 -20 9 -11 3
-20 1 -20 -4z"/>
<path d="M6150 3911 c0 -6 4 -13 10 -16 6 -3 7 1 4 9 -7 18 -14 21 -14 7z"/>
<path d="M4635 3898 c-33 -5 -77 -7 -98 -4 -20 2 -35 0 -32 -4 3 -5 -5 -10
-17 -12 -13 -2 -22 -9 -20 -16 1 -6 -1 -12 -4 -12 -9 0 -34 28 -34 38 0 5 -16
9 -35 9 -19 0 -35 -4 -35 -9 0 -5 12 -5 26 -2 19 5 25 4 20 -5 -4 -6 -12 -9
-17 -6 -5 4 -9 0 -9 -8 0 -9 9 -12 28 -9 17 2 33 -2 41 -12 11 -14 15 -13 32
3 11 10 30 19 42 19 12 0 49 5 82 10 67 12 135 14 135 3 0 -3 24 -7 54 -7 29
-1 58 -4 64 -8 12 -7 42 3 42 15 0 5 -26 9 -57 10 -59 0 -99 4 -130 12 -10 2
-45 0 -78 -5z"/>
<path d="M4910 3891 c0 -21 4 -23 35 -19 19 2 35 0 35 -4 0 -4 4 -8 8 -8 4 0
8 9 8 20 0 13 -7 20 -18 20 -10 0 -18 -4 -18 -10 0 -17 -28 -11 -39 8 -9 15
-10 14 -11 -7z"/>
<path d="M5058 3902 c-16 -2 -28 -8 -28 -13 0 -6 -4 -7 -10 -4 -5 3 -10 2 -10
-2 0 -15 72 -12 95 3 12 8 29 12 38 9 8 -4 18 -2 21 3 5 9 -45 11 -106 4z m25
-19 c-7 -2 -19 -2 -25 0 -7 3 -2 5 12 5 14 0 19 -2 13 -5z"/>
<path d="M5176 3894 c-3 -9 -6 -16 -6 -17 0 -1 12 -3 26 -3 24 -2 25 -1 8 17
-21 23 -20 23 -28 3z"/>
<path d="M5227 3888 c9 -10 21 -18 27 -17 6 0 5 3 -2 6 -10 4 -10 8 -1 19 9
11 7 14 -14 12 -25 -2 -25 -3 -10 -20z"/>
<path d="M5301 3901 c-9 -6 -2 -10 20 -14 19 -2 41 0 49 5 12 7 10 8 -6 5 -12
-2 -28 -1 -36 4 -7 4 -20 4 -27 0z"/>
<path d="M5926 3894 c-3 -8 -10 -12 -16 -9 -5 3 -10 1 -10 -4 0 -6 3 -11 8
-11 10 1 42 26 42 34 0 13 -18 6 -24 -10z"/>
<path d="M5960 3900 c0 -5 4 -10 9 -10 6 0 13 5 16 10 3 6 -1 10 -9 10 -9 0
-16 -4 -16 -10z"/>
<path d="M6016 3898 c3 -4 11 -5 19 -1 21 7 19 12 -4 10 -11 0 -18 -5 -15 -9z"/>
<path d="M6094 3898 c10 -6 22 -6 26 -2 5 5 -3 10 -18 11 -22 1 -24 0 -8 -9z"/>
<path d="M4120 3893 c0 -15 103 -29 148 -19 23 5 42 12 42 17 0 4 -10 6 -22 3
-28 -7 -149 -5 -160 2 -4 3 -8 1 -8 -3z"/>
<path d="M4446 3891 c-4 -5 3 -7 14 -4 23 6 26 13 6 13 -8 0 -17 -4 -20 -9z"/>
<path d="M5400 3890 c0 -5 5 -10 10 -10 6 0 10 5 10 10 0 6 -4 10 -10 10 -5 0
-10 -4 -10 -10z"/>
<path d="M5491 3890 c-9 -5 -4 -7 13 -7 29 0 32 2 13 10 -8 3 -20 2 -26 -3z"/>
<path d="M5560 3890 c-8 -5 -10 -10 -5 -10 6 0 17 5 25 10 8 5 11 10 5 10 -5
0 -17 -5 -25 -10z"/>
<path d="M5115 3880 c-3 -5 3 -10 15 -10 12 0 18 5 15 10 -3 6 -10 10 -15 10
-5 0 -12 -4 -15 -10z"/>
<path d="M6881 3881 c-8 -5 -19 -7 -25 -5 -7 3 -12 -5 -13 -16 l-2 -21 30 21
c16 12 29 23 29 26 0 6 -3 5 -19 -5z"/>
<path d="M6735 3870 c4 -6 -7 -10 -25 -10 -17 0 -29 -4 -25 -9 3 -6 18 -6 36
-1 40 12 44 16 24 24 -9 3 -13 2 -10 -4z"/>
<path d="M4338 3863 c6 -2 18 -2 25 0 6 3 1 5 -13 5 -14 0 -19 -2 -12 -5z"/>
<path d="M6615 3860 c-3 -4 2 -11 11 -14 22 -8 34 -7 34 3 0 12 -39 21 -45 11z"/>
<path d="M4908 3853 c6 -2 18 -2 25 0 6 3 1 5 -13 5 -14 0 -19 -2 -12 -5z"/>
<path d="M4410 3841 c0 -6 4 -13 10 -16 6 -3 7 1 4 9 -7 18 -14 21 -14 7z"/>
<path d="M6830 3464 l-65 -13 65 5 c35 3 71 10 80 14 21 13 4 11 -80 -6z"/>
<path d="M3159 2149 l-24 -20 28 17 c15 9 27 18 27 20 0 8 -8 4 -31 -17z"/>
<path d="M3055 2050 c-16 -11 -25 -20 -20 -20 10 0 64 39 55 40 -3 0 -18 -9
-35 -20z"/>
<path d="M2980 1973 c-36 -25 -63 -47 -60 -48 3 -1 -2 -10 -10 -21 -15 -19 34
19 105 81 53 46 43 43 -35 -12z"/>
<path d="M5498 2013 c12 -2 30 -2 40 0 9 3 -1 5 -23 4 -22 0 -30 -2 -17 -4z"/>
<path d="M5578 1923 c7 -3 16 -2 19 1 4 3 -2 6 -13 5 -11 0 -14 -3 -6 -6z"/>
<path d="M5343 1913 c9 -2 25 -2 35 0 9 3 1 5 -18 5 -19 0 -27 -2 -17 -5z"/>
<path d="M4050 130 c0 -5 7 -10 16 -10 8 0 12 5 9 10 -3 6 -10 10 -16 10 -5 0
-9 -4 -9 -10z"/>
<path d="M898 9063 c7 -3 16 -2 19 1 4 3 -2 6 -13 5 -11 0 -14 -3 -6 -6z"/>
<path d="M4560 8001 c0 -6 4 -13 10 -16 6 -3 7 1 4 9 -7 18 -14 21 -14 7z"/>
<path d="M4213 7985 c0 -8 4 -12 9 -9 4 3 8 9 8 15 0 5 -4 9 -8 9 -5 0 -9 -7
-9 -15z"/>
<path d="M4055 7960 c3 -5 8 -10 11 -10 2 0 4 5 4 10 0 6 -5 10 -11 10 -5 0
-7 -4 -4 -10z"/>
<path d="M8220 7610 c-6 -11 -8 -20 -6 -20 3 0 10 9 16 20 6 11 8 20 6 20 -3
0 -10 -9 -16 -20z"/>
<path d="M3533 7613 c9 -2 25 -2 35 0 9 3 1 5 -18 5 -19 0 -27 -2 -17 -5z"/>
<path d="M3628 7613 c7 -3 16 -2 19 1 4 3 -2 6 -13 5 -11 0 -14 -3 -6 -6z"/>
<path d="M7430 7443 c43 -4 69 -21 49 -33 -5 -4 0 -16 11 -28 12 -12 17 -22
12 -22 -5 0 -7 -11 -5 -24 5 -26 -22 -58 -69 -78 -31 -14 -37 -30 -10 -27 41
4 82 -2 82 -12 0 -16 29 -41 40 -34 5 3 10 1 10 -4 0 -6 -5 -11 -11 -11 -5 0
-8 -4 -5 -8 8 -13 51 -6 48 7 -1 7 2 10 7 6 6 -3 8 -12 4 -20 -3 -8 0 -15 6
-15 6 0 11 5 11 11 0 6 7 9 15 6 8 -4 17 -2 21 4 4 7 10 7 18 0 17 -14 55 -10
49 6 -3 7 0 13 6 13 6 0 11 -6 11 -12 1 -8 6 -6 14 4 7 10 16 15 19 11 4 -3 7
-1 7 6 0 8 -8 11 -19 8 -10 -2 -26 0 -35 5 -10 6 -16 5 -16 -2 0 -6 -4 -8 -10
-5 -19 11 -10 23 20 27 17 3 30 0 30 -5 0 -5 6 -5 13 1 7 6 47 12 88 12 41 0
101 2 134 4 33 3 66 5 73 5 21 2 13 21 -9 21 -11 0 -17 5 -14 10 3 6 1 10 -4
10 -6 0 -11 -4 -11 -10 0 -5 -10 -9 -22 -9 -18 1 -19 2 -5 6 9 2 15 9 11 14
-3 5 -9 7 -13 5 -4 -3 -7 4 -8 14 -1 13 4 17 20 14 19 -4 19 -3 -3 8 -35 17
-36 18 -20 28 9 6 20 4 30 -3 13 -10 13 -10 2 5 -16 20 -8 40 12 32 8 -3 17
-1 21 5 3 6 1 11 -4 11 -6 0 -11 5 -11 10 0 6 7 10 15 10 8 0 15 4 15 9 0 6
17 12 38 14 20 2 -129 4 -333 4 -203 0 -350 -2 -325 -4z m548 -62 c-7 -11 -16
-17 -21 -14 -4 3 0 11 10 19 24 18 25 17 11 -5z m-431 -165 c0 -8 -6 -12 -15
-9 -11 5 -11 7 0 14 7 5 13 9 14 9 0 0 1 -6 1 -14z m140 -35 c10 -16 9 -18 -8
-14 -10 3 -19 12 -19 19 0 20 13 17 27 -5z m-47 -1 c0 -5 -5 -10 -11 -10 -5 0
-7 5 -4 10 3 6 8 10 11 10 2 0 4 -4 4 -10z"/>
<path d="M8233 7232 c17 -7 17 -9 3 -21 -9 -7 -16 -18 -16 -24 0 -6 -8 -20
-17 -31 -17 -20 -17 -20 1 -6 18 14 19 13 13 -2 -3 -10 -2 -18 4 -18 6 0 6 -7
-1 -19 -7 -14 -7 -22 0 -26 6 -4 8 -11 5 -16 -4 -5 -2 -9 3 -9 5 0 12 -21 16
-47 11 -82 17 -115 25 -137 l8 -21 7 22 c4 13 13 20 21 17 10 -4 13 0 10 17
-3 13 3 29 13 38 9 9 27 37 39 63 21 45 110 170 125 176 16 7 38 34 34 41 -2
3 -73 7 -158 9 -84 1 -145 -2 -135 -6z"/>
<path d="M7491 7174 c0 -11 3 -14 6 -6 3 7 2 16 -1 19 -3 4 -6 -2 -5 -13z"/>
<path d="M7570 7130 c0 -5 5 -10 10 -10 6 0 10 5 10 10 0 6 -4 10 -10 10 -5 0
-10 -4 -10 -10z"/>
<path d="M6673 7023 c20 -2 54 -2 75 0 20 2 3 4 -38 4 -41 0 -58 -2 -37 -4z"/>
<path d="M6608 7013 c7 -3 16 -2 19 1 4 3 -2 6 -13 5 -11 0 -14 -3 -6 -6z"/>
<path d="M6805 7013 c11 -3 42 -14 68 -24 27 -11 46 -15 43 -10 -7 11 -94 41
-115 40 -11 -1 -9 -3 4 -6z"/>
<path d="M6746 6860 c-58 -18 -124 -101 -141 -178 -11 -51 12 -125 53 -172 82
-96 195 -105 280 -21 36 35 39 47 16 80 l-16 23 -32 -30 c-66 -63 -121 -69
-178 -21 -140 114 6 330 154 228 33 -24 41 -24 63 2 19 20 18 20 -10 44 -64
52 -120 65 -189 45z"/>
<path d="M4215 6826 c-15 -22 -15 -26 1 -44 18 -21 37 -19 67 6 16 15 16 17
-5 39 -27 29 -44 29 -63 -1z"/>
<path d="M4355 6820 c-17 -19 -17 -21 0 -40 21 -24 34 -25 60 -6 17 12 18 18
7 40 -14 31 -42 34 -67 6z"/>
<path d="M4894 6818 c-25 -12 -44 -48 -44 -83 0 -81 88 -125 140 -70 19 20 21
28 11 38 -10 9 -14 8 -22 -5 -32 -57 -99 -36 -99 31 0 60 43 88 86 56 24 -18
34 -19 34 -1 0 19 -39 46 -65 45 -11 0 -30 -5 -41 -11z"/>
<path d="M5081 6813 c-17 -33 -52 -165 -46 -171 4 -4 14 3 22 16 11 16 25 22
50 22 24 0 41 -7 54 -22 25 -31 25 -8 -1 67 -33 96 -59 125 -79 88z m49 -90
c0 -7 -11 -13 -25 -13 -28 0 -30 6 -14 47 l11 28 13 -25 c8 -14 14 -31 15 -37z"/>
<path d="M5224 6817 c-9 -24 1 -172 11 -172 6 0 11 15 13 33 3 29 6 33 30 30
19 -2 31 -12 41 -35 8 -18 18 -33 23 -33 11 0 10 27 -2 50 -7 13 -5 27 6 49
14 29 14 34 1 55 -22 33 -112 50 -123 23z m97 -38 c13 -26 2 -39 -36 -42 -23
-2 -29 3 -35 25 -10 32 -5 38 31 38 19 0 32 -7 40 -21z"/>
<path d="M5531 6808 c-5 -13 -12 -38 -16 -56 -9 -41 -21 -34 -29 17 -6 37 -21
60 -32 49 -8 -9 32 -162 43 -165 8 -3 17 14 24 41 6 26 15 48 19 51 4 3 13
-15 20 -40 13 -45 34 -73 43 -58 15 25 46 168 38 176 -12 12 -27 -17 -36 -70
-4 -24 -11 -43 -15 -43 -5 0 -14 25 -20 55 -13 62 -26 77 -39 43z"/>
<path d="M5707 6793 c-27 -70 -46 -143 -37 -148 5 -3 11 3 15 14 15 49 82 52
104 5 6 -14 15 -23 20 -19 10 5 -34 150 -52 173 -17 22 -34 13 -50 -25z m47
-29 c12 -31 6 -44 -18 -44 -23 0 -24 2 -15 30 12 33 24 38 33 14z"/>
<path d="M5854 6805 c-24 -36 -7 -69 43 -85 50 -16 59 -26 43 -45 -17 -21 -40
-19 -67 7 -13 12 -26 18 -30 14 -11 -11 44 -56 68 -56 37 0 59 19 59 51 0 27
-6 32 -50 51 -41 17 -50 25 -48 42 4 28 33 32 55 7 18 -22 43 -28 43 -11 0 21
-41 50 -70 50 -21 0 -35 -8 -46 -25z"/>
<path d="M6018 6823 c-2 -5 -3 -24 -2 -43 1 -19 2 -56 3 -82 1 -55 21 -66 21
-13 0 34 1 35 40 35 33 0 40 -3 40 -19 0 -26 10 -51 21 -51 5 0 9 41 9 91 0
68 -3 90 -12 87 -7 -3 -14 -21 -16 -41 -3 -36 -4 -37 -43 -37 -39 0 -39 0 -39
40 0 35 -12 53 -22 33z"/>
<path d="M4265 6700 c-28 -29 -29 -32 -13 -57 8 -14 27 -33 40 -41 24 -14 28
-13 62 13 44 34 45 55 5 89 -40 34 -59 33 -94 -4z"/>
<path d="M4441 6460 c-79 -80 -141 -136 -147 -132 -6 4 -25 27 -43 52 -45 62
-209 210 -226 204 -23 -9 -26 -35 -7 -59 48 -61 280 -295 293 -295 18 0 319
314 319 333 0 17 -20 37 -39 37 -8 0 -75 -63 -150 -140z"/>
<path d="M4364 6539 c-8 -14 14 -29 32 -22 7 2 10 11 7 19 -4 12 -8 12 -21 2
-12 -10 -14 -10 -8 0 4 6 5 12 2 12 -3 0 -8 -5 -12 -11z"/>
<path d="M10887 5658 c15 -242 13 -228 36 -228 48 0 85 123 58 192 -12 30 -50
70 -61 63 -4 -3 -10 2 -14 10 -12 32 -23 12 -19 -37z"/>
<path d="M11073 5345 c0 -22 2 -30 4 -17 2 12 2 30 0 40 -3 9 -5 -1 -4 -23z"/>
<path d="M11021 5180 c-12 -17 -17 -30 -12 -30 10 0 45 50 39 56 -3 2 -14 -10
-27 -26z"/>
<path d="M10757 4540 c-3 -14 -2 -29 3 -34 16 -16 23 1 13 31 l-9 27 -7 -24z"/>
<path d="M11158 4542 c-4 -13 -17 -26 -29 -29 -20 -6 -21 -7 -5 -13 23 -8 76
-1 76 11 0 5 -6 6 -14 3 -10 -4 -16 3 -18 23 -3 27 -3 27 -10 5z"/>
<path d="M7746 2131 c-3 -5 2 -15 12 -22 15 -12 16 -12 5 2 -7 9 -10 19 -6 22
3 4 4 7 0 7 -3 0 -8 -4 -11 -9z"/>
<path d="M7837 1969 c7 -7 15 -10 18 -7 3 3 -2 9 -12 12 -14 6 -15 5 -6 -5z"/>
<path d="M8017 1959 c7 -7 15 -10 18 -7 3 3 -2 9 -12 12 -14 6 -15 5 -6 -5z"/>
<path d="M8050 1950 c0 -6 7 -10 15 -10 8 0 15 2 15 4 0 2 -7 6 -15 10 -8 3
-15 1 -15 -4z"/>
<path d="M7885 1930 c4 -6 11 -8 16 -5 14 9 11 15 -7 15 -8 0 -12 -5 -9 -10z"/>
<path d="M7975 1930 c3 -5 11 -10 16 -10 6 0 7 5 4 10 -3 6 -11 10 -16 10 -6
0 -7 -4 -4 -10z"/>
<path d="M7910 1915 c0 -5 56 -35 66 -35 4 0 -5 9 -19 20 -23 19 -47 26 -47
15z"/>
<path d="M8130 1905 c0 -2 14 -12 30 -20 17 -9 28 -20 25 -25 -4 -6 2 -10 12
-10 14 1 10 8 -17 30 -32 28 -50 37 -50 25z"/>
<path d="M7735 1865 c-40 -11 -40 -11 27 -11 38 1 68 2 68 3 0 0 -12 5 -27 11
-19 6 -41 5 -68 -3z"/>
<path d="M8111 1817 c2 -1 15 -11 28 -22 l24 -20 -14 23 c-8 12 -20 22 -28 22
-8 0 -12 -1 -10 -3z"/>
<path d="M7450 1640 c0 -5 7 -7 15 -4 8 4 15 8 15 10 0 2 -7 4 -15 4 -8 0 -15
-4 -15 -10z"/>
<path d="M7485 1607 c1 -13 5 -29 10 -37 7 -12 10 -9 15 10 8 30 2 50 -14 50
-6 0 -11 -10 -11 -23z"/>
<path d="M7393 1438 c1 -17 -4 -23 -27 -28 -28 -5 -29 -6 -12 -22 19 -20 46
-24 46 -8 0 6 11 10 24 10 17 0 26 7 30 25 9 34 1 45 -34 45 -25 0 -29 -4 -27
-22z"/>
<path d="M7250 1290 c0 -13 30 -13 50 0 11 7 7 10 -17 10 -18 0 -33 -4 -33
-10z"/>
<path d="M7875 1099 c-4 -6 -5 -12 -2 -15 2 -3 7 2 10 11 7 17 1 20 -8 4z"/>
<path d="M7780 1090 c0 -5 5 -10 11 -10 5 0 7 5 4 10 -3 6 -8 10 -11 10 -2 0
-4 -4 -4 -10z"/>
<path d="M7017 1069 c-9 -6 -17 -15 -17 -20 0 -6 5 -7 11 -3 6 3 15 1 19 -6 5
-9 9 -8 13 3 8 22 -6 37 -26 26z"/>
<path d="M4085 1050 c3 -5 8 -10 11 -10 2 0 4 5 4 10 0 6 -5 10 -11 10 -5 0
-7 -4 -4 -10z"/>
<path d="M7010 1008 c0 -11 22 -10 40 2 11 8 9 9 -12 8 -16 -1 -28 -6 -28 -10z"/>
<path d="M5660 870 c0 -5 5 -10 11 -10 5 0 7 5 4 10 -3 6 -8 10 -11 10 -2 0
-4 -4 -4 -10z"/>
<path d="M1586 839 c-23 -20 -23 -20 51 -39 40 -10 93 1 93 20 0 34 -109 47
-144 19z"/>
<path d="M4110 780 c0 -6 7 -10 15 -10 8 0 15 2 15 4 0 2 -7 6 -15 10 -8 3
-15 1 -15 -4z"/>
<path d="M4185 780 c-3 -5 1 -10 9 -10 9 0 16 5 16 10 0 6 -4 10 -9 10 -6 0
-13 -4 -16 -10z"/>
<path d="M4426 705 c-3 -9 0 -15 9 -15 8 0 15 7 15 15 0 8 -4 15 -9 15 -5 0
-11 -7 -15 -15z"/>
<path d="M6114 671 c4 -5 -3 -7 -14 -4 -11 3 -26 1 -33 -4 -6 -6 -49 -9 -95
-8 -98 3 -187 -14 -187 -35 0 -22 60 -29 280 -34 105 -3 211 -9 235 -15 63
-14 175 -25 240 -24 84 2 160 13 160 24 0 12 -25 16 -157 28 -61 6 -140 20
-175 32 -72 24 -91 28 -171 30 -31 0 -60 5 -63 10 -3 5 -10 9 -15 9 -6 0 -8
-4 -5 -9z"/>
<path d="M5423 625 c5 -14 63 -18 84 -6 16 9 15 11 -7 12 -65 5 -80 4 -77 -6z"/>
<path d="M1605 622 c-9 -10 -4 -47 9 -64 7 -10 16 -14 20 -10 5 4 6 -6 4 -23
-1 -16 -10 -35 -18 -42 -13 -10 -12 -11 5 -8 11 2 20 4 20 5 0 1 13 4 30 6 42
7 56 31 31 56 -8 9 -11 26 -8 47 4 29 2 33 -12 28 -9 -4 -16 -3 -16 2 0 8 -57
11 -65 3z m55 -28 c-1 -4 4 -11 12 -15 10 -7 9 -9 -3 -9 -19 0 -32 26 -22 43
5 8 8 8 11 -1 2 -6 3 -14 2 -18z"/>
<path d="M4080 520 c0 -13 7 -20 20 -20 11 0 20 4 20 10 0 5 -9 14 -20 20 -17
9 -20 8 -20 -10z"/>
<path d="M6700 523 c-37 -11 -42 -14 -36 -21 4 -4 34 -7 66 -8 46 -1 57 2 53
12 -3 8 -10 15 -17 15 -6 1 -20 3 -31 4 -11 1 -27 0 -35 -2z"/>
<path d="M4950 480 c0 -5 5 -10 11 -10 5 0 7 5 4 10 -3 6 -8 10 -11 10 -2 0
-4 -4 -4 -10z"/>
<path d="M5030 478 c0 -24 84 -41 173 -35 45 3 91 9 102 13 29 12 -33 23 -167
30 -89 5 -108 4 -108 -8z"/>
<path d="M6136 442 c-4 -4 -11 -7 -14 -7 -4 0 -18 -8 -31 -17 -23 -16 -21 -17
60 -24 46 -4 99 -7 117 -6 17 0 51 1 75 1 40 1 77 15 67 25 -3 2 -53 8 -110
11 -111 8 -135 11 -149 19 -4 3 -11 2 -15 -2z"/>
<path d="M6641 417 c-11 -11 -146 -14 -183 -5 -15 4 -30 3 -33 -2 -3 -5 7 -12
22 -16 15 -3 42 -11 58 -17 17 -7 35 -13 40 -13 6 -1 14 -2 19 -3 14 -2 -41
-41 -57 -41 -19 0 -35 -22 -19 -28 6 -2 8 -11 5 -20 -3 -9 -3 -14 1 -10 10 8
46 -22 46 -39 0 -7 -8 -13 -17 -13 -11 -1 -4 -7 15 -15 17 -8 32 -18 32 -23 0
-16 -44 -60 -68 -67 -14 -4 -22 -13 -20 -23 4 -19 -18 -45 -44 -55 -10 -4 -18
-11 -18 -17 0 -7 88 -10 260 -10 227 0 261 2 267 16 3 8 11 13 18 10 12 -4 20
8 44 67 7 17 18 27 31 27 17 0 19 4 14 26 -5 18 -1 29 12 39 18 13 17 15 -13
27 -17 6 -35 21 -38 32 -7 21 -7 21 -12 1 -3 -11 -10 -24 -15 -30 -8 -7 -9 -4
-4 9 3 10 1 25 -6 33 -9 11 -9 16 2 23 12 7 10 13 -9 34 -19 20 -27 23 -41 14
-10 -7 -25 -8 -36 -3 -11 4 -23 9 -29 11 -5 1 -18 5 -27 9 -11 4 -19 3 -19 -4
-3 -26 -4 -30 -13 -38 -5 -5 -6 -3 -2 5 4 6 2 12 -3 12 -6 0 -11 -4 -11 -10 0
-5 -4 -10 -10 -10 -17 0 -11 36 11 64 24 31 18 44 -27 52 -50 9 -115 9 -123 1z"/>
<path d="M7158 183 c7 -3 16 -2 19 1 4 3 -2 6 -13 5 -11 0 -14 -3 -6 -6z"/>
<path d="M3810 20 c-8 -5 -12 -11 -9 -14 2 -3 11 -1 19 4 8 5 12 11 9 14 -2 3
-11 1 -19 -4z"/>
</g>
</svg>
